<svg width="190" height="225" viewBox="0 0 190 225" fill="none" xmlns="http://www.w3.org/2000/svg">
<path d="M116.309 0.963379H32.1999C29.9251 0.987598 27.7531 1.88822 26.1605 3.46763C24.5679 5.04703 23.6848 7.17619 23.7049 9.38793V177.696C23.6873 179.907 24.5712 182.034 26.1633 183.613C27.7553 185.192 29.9259 186.093 32.1999 186.12H116.29C118.564 186.093 120.735 185.192 122.327 183.613C123.919 182.034 124.803 179.907 124.785 177.696V9.40629C124.811 7.19453 123.932 5.06339 122.343 3.48054C120.754 1.89768 118.584 0.992411 116.309 0.963379ZM119.509 172.492C119.509 176.925 116.092 180.504 111.882 180.504H36.655C32.4358 180.504 29.0284 176.925 29.0284 172.492V15.766C29.0284 6.74493 32.4358 6.30443 36.655 6.30443H51.7571C52.6349 6.30443 53.3523 7.22214 53.3523 8.47022V8.98414C53.3523 11.8015 54.9381 11.8107 56.8825 11.8107H91.6645C93.6184 11.8107 95.1852 11.8107 95.1852 8.98414V8.48858C95.1852 7.28638 95.8931 6.32279 96.7898 6.32279H111.892C116.102 6.32279 119.519 7.52498 119.519 15.7844L119.509 172.492Z" fill="#455A64"/>
<path d="M79.0169 8.2959H69.512C69.3568 8.2959 69.208 8.23597 69.0982 8.12926C68.9885 8.02256 68.9268 7.87783 68.9268 7.72693C68.9268 7.57603 68.9885 7.43131 69.0982 7.32461C69.208 7.21791 69.3568 7.15796 69.512 7.15796H79.0169C79.1729 7.15794 79.3228 7.21759 79.4341 7.32403C79.5453 7.43048 79.609 7.57519 79.6115 7.72693C79.609 7.87867 79.5453 8.02338 79.4341 8.12982C79.3228 8.23627 79.1729 8.29592 79.0169 8.2959Z" fill="white"/>
<path d="M119.509 15.766V172.492C119.509 176.924 116.092 180.503 111.882 180.503H36.6549C32.4357 180.503 29.0283 176.924 29.0283 172.492V15.766C29.0283 6.74494 32.4357 6.30444 36.6549 6.30444H51.757C52.6348 6.30444 53.3522 7.22215 53.3522 8.47023V8.98414C53.3522 11.8015 54.9379 11.8107 56.8823 11.8107H91.6644C93.6182 11.8107 95.1851 11.8107 95.1851 8.98414V8.48859C95.1851 7.28639 95.893 6.3228 96.7897 6.3228H111.892C116.092 6.30445 119.509 7.50664 119.509 15.766Z" fill="white"/>
<path d="M119.509 15.7661V27.4578H29.019V15.7661C29.019 6.74494 32.4359 6.30444 36.655 6.30444H51.7572C52.6255 6.30444 53.3429 7.22216 53.3429 8.47025V8.98417C53.3429 11.8016 54.9286 11.8107 56.8636 11.8107H91.6646C93.6184 11.8107 95.1947 11.8107 95.1947 8.98417V8.48861C95.1947 7.2864 95.9026 6.3228 96.7899 6.3228H111.892C116.092 6.30445 119.509 7.50665 119.509 15.7661Z" fill="#45B1DF"/>
<path d="M37.5989 21.7493L34.9277 19.3174L37.5989 16.8855L38.0142 17.3076L35.815 19.3174L38.0142 21.3271L37.5989 21.7493Z" fill="white"/>
<path d="M111.345 21.9695H109.457V21.3363C109.457 21.3187 109.451 21.3015 109.441 21.2869C109.431 21.2723 109.417 21.2607 109.4 21.2537L109.193 21.1344C109.176 21.1276 109.159 21.1241 109.141 21.1241C109.123 21.1241 109.105 21.1276 109.089 21.1344L108.513 21.4648L107.569 19.8772L108.145 19.556C108.157 19.5415 108.163 19.5238 108.163 19.5055C108.163 19.4873 108.157 19.4695 108.145 19.4551V19.2348C108.157 19.2204 108.163 19.2026 108.163 19.1843C108.163 19.1661 108.157 19.1483 108.145 19.1339L107.569 18.8127L108.513 17.2251L109.089 17.5463C109.105 17.5552 109.123 17.5598 109.141 17.5598C109.159 17.5598 109.177 17.5552 109.193 17.5463L109.4 17.427C109.417 17.42 109.431 17.4084 109.441 17.3938C109.451 17.3792 109.457 17.362 109.457 17.3444V16.6929H111.345V17.3444C111.345 17.362 111.351 17.3792 111.361 17.3938C111.371 17.4084 111.385 17.42 111.401 17.427L111.609 17.5463C111.625 17.5552 111.643 17.5598 111.661 17.5598C111.679 17.5598 111.697 17.5552 111.713 17.5463L112.289 17.2251L113.233 18.8127L112.657 19.1339C112.645 19.1483 112.639 19.1661 112.639 19.1843C112.639 19.2026 112.645 19.2204 112.657 19.2348V19.4551C112.645 19.4695 112.639 19.4873 112.639 19.5055C112.639 19.5238 112.645 19.5415 112.657 19.556L113.233 19.8772L112.289 21.4648L111.713 21.1436C111.697 21.1347 111.679 21.1301 111.661 21.1301C111.643 21.1301 111.625 21.1347 111.609 21.1436L111.401 21.2629C111.385 21.2699 111.371 21.2814 111.361 21.2961C111.351 21.3107 111.345 21.3279 111.345 21.3455V21.9695ZM109.929 21.5106H110.873V21.3363C110.874 21.2341 110.904 21.1342 110.959 21.047C111.014 20.9598 111.091 20.8885 111.184 20.8408C111.241 20.8154 111.295 20.7846 111.345 20.749C111.437 20.6974 111.541 20.6703 111.647 20.6703C111.753 20.6703 111.857 20.6974 111.949 20.749L112.119 20.8499L112.591 20.0516L112.421 19.9506C112.33 19.9008 112.255 19.8271 112.205 19.7378C112.155 19.6485 112.131 19.5474 112.138 19.4459V19.2624C112.132 19.1597 112.155 19.0574 112.205 18.9667C112.255 18.8761 112.33 18.8005 112.421 18.7484L112.591 18.6567L112.119 17.8583L111.949 17.9593C111.859 18.0109 111.756 18.0382 111.652 18.0382C111.547 18.0382 111.444 18.0109 111.354 17.9593L111.184 17.8675C111.091 17.8197 111.014 17.7485 110.959 17.6613C110.904 17.5741 110.874 17.4741 110.873 17.3719V17.1792H109.929V17.3719C109.928 17.4741 109.898 17.5741 109.843 17.6613C109.788 17.7485 109.71 17.8197 109.618 17.8675C109.561 17.8929 109.507 17.9236 109.457 17.9593C109.365 18.0108 109.261 18.0379 109.155 18.0379C109.049 18.0379 108.945 18.0108 108.853 17.9593L108.683 17.8583L108.211 18.6567L108.381 18.7484C108.472 18.8005 108.547 18.8761 108.597 18.9667C108.647 19.0574 108.67 19.1597 108.664 19.2624V19.4459C108.67 19.5486 108.647 19.6508 108.597 19.7415C108.547 19.8321 108.472 19.9077 108.381 19.9598L108.211 20.0516L108.683 20.8499L108.853 20.749C108.945 20.6974 109.049 20.6703 109.155 20.6703C109.261 20.6703 109.365 20.6974 109.457 20.749C109.507 20.7846 109.561 20.8154 109.618 20.8408C109.71 20.8885 109.788 20.9598 109.843 21.047C109.898 21.1342 109.928 21.2341 109.929 21.3363V21.5106ZM110.401 20.6756C110.125 20.6756 109.855 20.5959 109.625 20.4467C109.395 20.2974 109.216 20.0853 109.11 19.8372C109.005 19.589 108.977 19.3159 109.031 19.0524C109.085 18.789 109.218 18.547 109.413 18.357C109.609 18.1671 109.857 18.0378 110.128 17.9853C110.399 17.9329 110.68 17.9598 110.936 18.0626C111.191 18.1654 111.409 18.3395 111.562 18.5629C111.716 18.7862 111.798 19.0488 111.798 19.3174C111.795 19.6769 111.647 20.0209 111.386 20.2751C111.125 20.5293 110.771 20.6732 110.401 20.6756ZM110.401 18.4181C110.214 18.4181 110.032 18.4719 109.877 18.5727C109.721 18.6736 109.6 18.8169 109.529 18.9846C109.458 19.1523 109.439 19.3368 109.475 19.5148C109.512 19.6928 109.602 19.8563 109.734 19.9846C109.866 20.113 110.034 20.2004 110.217 20.2358C110.4 20.2712 110.59 20.253 110.762 20.1836C110.935 20.1141 111.082 19.9965 111.186 19.8456C111.29 19.6947 111.345 19.5173 111.345 19.3358C111.345 19.0924 111.245 18.859 111.068 18.6869C110.891 18.5148 110.651 18.4181 110.401 18.4181Z" fill="white"/>
<path d="M49.1239 9.81933L48.9824 9.96621L48.8974 10.0488C48.7128 9.86564 48.4925 9.72011 48.2494 9.62075C48.0063 9.5214 47.7452 9.47022 47.4815 9.47022C47.2178 9.47022 46.9568 9.5214 46.7137 9.62075C46.4705 9.72011 46.2503 9.86564 46.0657 10.0488L45.9902 9.96621L45.8486 9.82852C45.9039 9.77177 45.9639 9.71956 46.028 9.67246C46.1577 9.56693 46.3003 9.47751 46.4527 9.40625C46.6327 9.32189 46.823 9.26019 47.019 9.22266H47.3022H47.7364C47.9134 9.2439 48.0875 9.28391 48.2555 9.34198C48.3764 9.38775 48.4932 9.44302 48.6048 9.50723C48.7251 9.56988 48.8388 9.64366 48.9446 9.72755L49.0956 9.86524L49.1239 9.81933Z" fill="white"/>
<path d="M46.5468 10.4891L46.3203 10.2688C46.4738 10.1189 46.6562 9.99998 46.857 9.91883C47.0579 9.83768 47.2732 9.7959 47.4907 9.7959C47.7082 9.7959 47.9236 9.83768 48.1244 9.91883C48.3253 9.99998 48.5077 10.1189 48.6611 10.2688L48.4346 10.4983C48.1836 10.2561 47.8443 10.1202 47.4907 10.1202C47.1371 10.1202 46.7979 10.2561 46.5468 10.4983V10.4891Z" fill="white"/>
<path d="M48.246 10.7094L48.0195 10.9387C47.958 10.8777 47.8846 10.8293 47.8035 10.7962C47.7225 10.7631 47.6355 10.746 47.5476 10.746C47.4597 10.746 47.3727 10.7631 47.2916 10.7962C47.2106 10.8293 47.1372 10.8777 47.0756 10.9387L46.8491 10.7094C47.036 10.5324 47.2866 10.4333 47.5476 10.4333C47.8085 10.4333 48.0592 10.5324 48.246 10.7094Z" fill="white"/>
<path d="M47.6984 11.1407C47.6984 11.1807 47.6863 11.2197 47.6635 11.2528C47.6407 11.286 47.6082 11.3119 47.5703 11.3272C47.5323 11.3424 47.4906 11.3464 47.4503 11.3387C47.4101 11.3309 47.373 11.3116 47.344 11.2834C47.315 11.2552 47.2952 11.2193 47.2872 11.1801C47.2792 11.141 47.2833 11.1004 47.299 11.0635C47.3147 11.0267 47.3413 10.9951 47.3754 10.973C47.4096 10.9508 47.4498 10.939 47.4908 10.939C47.5184 10.9376 47.546 10.942 47.5718 10.9516C47.5976 10.9613 47.6211 10.9761 47.6407 10.9951C47.6602 11.0141 47.6755 11.0369 47.6854 11.062C47.6954 11.0871 47.6998 11.1139 47.6984 11.1407Z" fill="white"/>
<path d="M34.9277 10.2507C34.9277 10.0974 34.9904 9.95032 35.1019 9.84192C35.2134 9.73351 35.3647 9.67261 35.5224 9.67261C35.681 9.67259 35.8332 9.73321 35.9462 9.84136C36.0592 9.94951 36.1239 10.0965 36.1264 10.2507C36.1264 10.4064 36.0628 10.5558 35.9495 10.6659C35.8362 10.776 35.6826 10.8379 35.5224 10.8379C35.3638 10.8355 35.2126 10.7726 35.1013 10.6627C34.9901 10.5528 34.9277 10.4048 34.9277 10.2507Z" fill="white"/>
<path d="M36.8154 10.2507C36.8154 10.0974 36.8781 9.95032 36.9896 9.84192C37.1011 9.73351 37.2524 9.67261 37.4101 9.67261C37.5687 9.67259 37.7209 9.73321 37.834 9.84136C37.947 9.94951 38.0117 10.0965 38.0142 10.2507C38.0142 10.4064 37.9505 10.5558 37.8372 10.6659C37.7239 10.776 37.5703 10.8379 37.4101 10.8379C37.2515 10.8355 37.1003 10.7726 36.989 10.6627C36.8778 10.5528 36.8154 10.4048 36.8154 10.2507Z" fill="white"/>
<path d="M38.703 10.2506C38.7213 10.1086 38.7923 9.97808 38.9027 9.88344C39.0131 9.78879 39.1552 9.73657 39.3023 9.73657C39.4495 9.73657 39.5916 9.78879 39.7019 9.88344C39.8123 9.97808 39.8833 10.1086 39.9017 10.2506C39.9123 10.3332 39.9048 10.4172 39.8796 10.4968C39.8544 10.5764 39.812 10.6499 39.7553 10.7123C39.6986 10.7748 39.6289 10.8249 39.5508 10.8591C39.4727 10.8934 39.388 10.9111 39.3023 10.9111C39.2166 10.9111 39.1319 10.8934 39.0538 10.8591C38.9757 10.8249 38.906 10.7748 38.8493 10.7123C38.7926 10.6499 38.7503 10.5764 38.725 10.4968C38.6998 10.4172 38.6923 10.3332 38.703 10.2506Z" fill="white"/>
<path d="M40.5913 10.2505C40.5913 10.1343 40.6267 10.0207 40.6931 9.92415C40.7595 9.82755 40.8538 9.75226 40.9642 9.7078C41.0746 9.66334 41.196 9.65171 41.3132 9.67437C41.4304 9.69704 41.538 9.75298 41.6225 9.83513C41.707 9.91728 41.7645 10.0219 41.7878 10.1359C41.8111 10.2498 41.7992 10.3679 41.7534 10.4753C41.7077 10.5826 41.6303 10.6743 41.531 10.7389C41.4316 10.8034 41.3149 10.8379 41.1954 10.8379C41.0352 10.8379 40.8815 10.776 40.7682 10.6658C40.6549 10.5557 40.5913 10.4063 40.5913 10.2505Z" fill="white"/>
<path d="M42.479 10.2507C42.4815 10.0965 42.5462 9.94951 42.6592 9.84136C42.7722 9.73321 42.9245 9.67259 43.0831 9.67261C43.2408 9.67261 43.392 9.73351 43.5035 9.84192C43.615 9.95032 43.6777 10.0974 43.6777 10.2507C43.6777 10.4048 43.6154 10.5528 43.5041 10.6627C43.3928 10.7726 43.2417 10.8355 43.0831 10.8379C42.9229 10.8379 42.7692 10.776 42.6559 10.6659C42.5426 10.5558 42.479 10.4064 42.479 10.2507Z" fill="white"/>
<path d="M112.713 11.5171H107.843V9.33276H112.713V11.5171ZM108.079 11.2876H112.477V9.56221H108.079V11.2876Z" fill="white"/>
<path d="M111.382 9.69995H108.239V11.1499H111.382V9.69995Z" fill="white"/>
<path d="M113.157 9.83765H112.723V11.0122H113.157V9.83765Z" fill="white"/>
<path d="M42.7715 170.923H42.0824V173.997H40.7987V172.428H38.524V173.997H37.2403V170.923H36.5513L39.6661 167.802L42.7715 170.923Z" fill="#EBEBEB"/>
<path d="M111.996 167.802H104.492V168.849H111.996V167.802Z" fill="#EBEBEB"/>
<path d="M111.996 170.372H104.492V171.418H111.996V170.372Z" fill="#EBEBEB"/>
<path d="M111.996 172.951H104.492V173.997H111.996V172.951Z" fill="#EBEBEB"/>
<path d="M42.6297 42.8475C41.8326 43.3307 40.912 43.5869 39.9726 43.5869C39.0332 43.5869 38.1127 43.3307 37.3156 42.8475C36.3815 42.2855 35.6613 41.4428 35.2643 40.447C34.8672 39.4512 34.815 38.3568 35.1154 37.3295C35.4159 36.3023 36.0526 35.3983 36.9291 34.7546C37.8057 34.1109 38.8742 33.7627 39.9726 33.7627C41.0711 33.7627 42.1396 34.1109 43.0161 34.7546C43.8926 35.3983 44.5294 36.3023 44.8298 37.3295C45.1303 38.3568 45.078 39.4512 44.681 40.447C44.2839 41.4428 43.5638 42.2855 42.6297 42.8475Z" fill="#DBDBDB"/>
<path d="M41.5067 38.1121C41.5067 38.4083 41.4163 38.6979 41.2468 38.9441C41.0773 39.1903 40.8364 39.382 40.5548 39.4949C40.2731 39.6079 39.9633 39.637 39.6646 39.5785C39.3659 39.52 39.0917 39.3766 38.8769 39.1665C38.6621 38.9564 38.5164 38.689 38.4581 38.3983C38.3998 38.1075 38.4316 37.8064 38.5495 37.5333C38.6674 37.2601 38.8661 37.0271 39.1203 36.8639C39.3746 36.7006 39.6729 36.6144 39.9776 36.6162C40.384 36.6187 40.7729 36.7773 41.0594 37.0576C41.3459 37.3379 41.5067 37.717 41.5067 38.1121Z" fill="white"/>
<path d="M42.63 42.2326V42.8475C41.8329 43.3307 40.9123 43.5869 39.973 43.5869C39.0336 43.5869 38.113 43.3307 37.3159 42.8475V42.2326C37.3563 41.5741 37.6538 40.9555 38.1477 40.5031C38.6416 40.0508 39.2944 39.7988 39.973 39.7988C40.6515 39.7988 41.3044 40.0508 41.7982 40.5031C42.2921 40.9555 42.5896 41.5741 42.63 42.2326Z" fill="white"/>
<path d="M83.4435 34.0466H51.3516V36.6162H83.4435V34.0466Z" fill="#EBEBEB"/>
<path d="M79.366 38.3325H51.3516V40.0396H79.366V38.3325Z" fill="#EBEBEB"/>
<path d="M97.6679 41.6177H51.3516V43.3245H97.6679V41.6177Z" fill="#EBEBEB"/>
<path d="M29.0281 109.244L119.509 109.244L119.509 47.647L29.0281 47.647L29.0281 109.244Z" fill="#EBEBEB"/>
<path d="M39.6001 65.157C39.6001 66.5981 40.0396 68.0069 40.8631 69.2052C41.6866 70.4035 42.8571 71.3374 44.2265 71.8889C45.596 72.4404 47.1028 72.5847 48.5566 72.3036C50.0104 72.0224 51.3457 71.3285 52.3938 70.3094C53.442 69.2904 54.1558 67.992 54.4449 66.5785C54.7341 65.1651 54.5857 63.7 54.0184 62.3685C53.4512 61.0371 52.4906 59.899 51.2582 59.0984C50.0257 58.2977 48.5768 57.8704 47.0945 57.8704C45.1069 57.8704 43.2006 58.638 41.7952 60.0046C40.3897 61.3711 39.6001 63.2244 39.6001 65.157Z" fill="#DBDBDB"/>
<path d="M69.2002 95.9736H119.509L94.3546 62.8169L69.2002 95.9736Z" fill="#C7C7C7"/>
<path d="M49.4731 96.001H91.0134L70.2386 74.4167L49.4731 96.001Z" fill="#DBDBDB"/>
<path d="M119.509 95.9734H29.0283V109.244H119.509V95.9734Z" fill="#DBDBDB"/>
<path d="M42.6297 141.721C41.8326 142.204 40.912 142.461 39.9726 142.461C39.0332 142.461 38.1127 142.204 37.3156 141.721C36.3815 141.159 35.6613 140.317 35.2643 139.321C34.8672 138.325 34.815 137.23 35.1154 136.203C35.4159 135.176 36.0526 134.272 36.9291 133.628C37.8057 132.984 38.8742 132.636 39.9726 132.636C41.0711 132.636 42.1396 132.984 43.0161 133.628C43.8926 134.272 44.5294 135.176 44.8298 136.203C45.1303 137.23 45.078 138.325 44.681 139.321C44.2839 140.317 43.5638 141.159 42.6297 141.721Z" fill="#DBDBDB"/>
<path d="M39.9775 138.482C40.8272 138.482 41.5161 137.812 41.5161 136.986C41.5161 136.16 40.8272 135.49 39.9775 135.49C39.1278 135.49 38.439 136.16 38.439 136.986C38.439 137.812 39.1278 138.482 39.9775 138.482Z" fill="white"/>
<path d="M42.63 141.107V141.721C41.8329 142.205 40.9123 142.461 39.973 142.461C39.0336 142.461 38.113 142.205 37.3159 141.721V141.107C37.3563 140.448 37.6538 139.829 38.1477 139.377C38.6416 138.925 39.2944 138.673 39.973 138.673C40.6515 138.673 41.3044 138.925 41.7982 139.377C42.2921 139.829 42.5896 140.448 42.63 141.107Z" fill="white"/>
<path d="M92.6182 132.92H51.3516V135.49H92.6182V132.92Z" fill="#EBEBEB"/>
<path d="M104.039 137.206H51.3516V138.913H104.039V137.206Z" fill="#EBEBEB"/>
<path d="M69.2947 140.492H51.3516V142.198H69.2947V140.492Z" fill="#EBEBEB"/>
<path d="M119.49 146.521H29.0283V161.562H119.49V146.521Z" fill="#EBEBEB"/>
<path d="M54.1456 161.571H40.0439C40.5624 160.156 41.5184 158.932 42.7808 158.067C44.0431 157.201 45.55 156.737 47.0948 156.737C48.6395 156.737 50.1464 157.201 51.4087 158.067C52.6711 158.932 53.6271 160.156 54.1456 161.571Z" fill="#DBDBDB"/>
<path d="M35.1069 116.457C34.9669 115.898 35.0005 115.311 35.2035 114.77C35.4066 114.23 35.7699 113.76 36.2476 113.42C36.7252 113.081 37.2957 112.886 37.8869 112.862C38.4782 112.837 39.0636 112.984 39.5692 113.283C40.0747 113.582 40.4778 114.02 40.7272 114.542C40.9767 115.064 41.0615 115.646 40.9708 116.214C40.8801 116.783 40.6181 117.313 40.2178 117.736C39.8175 118.16 39.2969 118.459 38.722 118.595C38.3401 118.687 37.9435 118.704 37.5547 118.646C37.166 118.588 36.7929 118.456 36.4569 118.257C36.1209 118.058 35.8287 117.797 35.597 117.488C35.3653 117.179 35.1988 116.829 35.1069 116.457Z" fill="#EBEBEB"/>
<path fill-rule="evenodd" clip-rule="evenodd" d="M37.6091 116.925C37.5241 116.879 37.4581 116.806 37.3543 116.815C37.2504 116.824 37.3543 116.815 37.3543 116.769V115.604C37.3473 115.594 37.3436 115.583 37.3436 115.571C37.3436 115.56 37.3473 115.549 37.3543 115.539C37.6563 115.392 37.7884 115.099 37.9772 114.842C38.077 114.712 38.1479 114.563 38.1853 114.405C38.2227 114.247 38.2257 114.083 38.1943 113.924C38.1943 113.841 38.1943 113.805 38.3075 113.786C38.3472 113.77 38.3912 113.768 38.4324 113.78C38.4736 113.791 38.5095 113.816 38.5341 113.851C38.6229 114.01 38.6805 114.184 38.704 114.365C38.7225 114.508 38.7225 114.653 38.704 114.796C38.704 114.906 38.6568 115.007 38.6379 115.117C38.619 115.227 38.6945 115.117 38.7228 115.117H39.7328C39.8744 115.117 39.9499 115.117 39.9688 115.246C39.9787 115.303 39.9694 115.361 39.9422 115.412C39.915 115.464 39.8713 115.505 39.8178 115.53C39.8178 115.53 39.7517 115.53 39.7517 115.576C39.7517 115.622 39.7517 115.576 39.8178 115.622C39.8838 115.668 39.9121 115.87 39.8178 115.971C39.7234 116.072 39.7233 115.971 39.7233 116.026C39.7233 116.081 39.78 116.026 39.8083 116.099C39.8298 116.126 39.8447 116.157 39.8516 116.191C39.8585 116.224 39.8573 116.259 39.8482 116.292C39.839 116.325 39.8221 116.355 39.7988 116.381C39.7755 116.406 39.7465 116.426 39.7139 116.439H39.6479C39.6479 116.439 39.6479 116.439 39.6479 116.485C39.6819 116.5 39.7106 116.525 39.7308 116.556C39.7509 116.587 39.7616 116.622 39.7616 116.659C39.7616 116.695 39.7509 116.731 39.7308 116.762C39.7106 116.793 39.6819 116.818 39.6479 116.833C39.5896 116.852 39.5268 116.852 39.4685 116.833H37.8828C37.8765 116.861 37.863 116.886 37.8437 116.907C37.8244 116.929 37.7998 116.944 37.7723 116.954C37.7449 116.963 37.7155 116.965 37.6869 116.96C37.6583 116.955 37.6315 116.943 37.6091 116.925Z" fill="white"/>
<path fill-rule="evenodd" clip-rule="evenodd" d="M36.0986 116.246C36.0986 115.998 36.0986 115.75 36.0986 115.502C36.0986 115.456 36.0986 115.429 36.1742 115.429C36.4762 115.429 36.7877 115.429 37.1181 115.429C37.1747 115.429 37.1841 115.429 37.1841 115.502V116.989C37.1841 117.053 37.1841 117.072 37.0992 117.072H36.2024C36.1269 117.072 36.1175 117.072 36.1175 116.98C36.1081 116.778 36.0986 116.493 36.0986 116.246Z" fill="white"/>
<path d="M41.3935 116.457C41.254 115.898 41.288 115.312 41.491 114.772C41.694 114.232 42.057 113.763 42.5342 113.423C43.0113 113.084 43.5813 112.889 44.172 112.864C44.7628 112.839 45.3478 112.985 45.8533 113.284C46.3588 113.582 46.7622 114.019 47.0123 114.54C47.2625 115.061 47.3483 115.642 47.259 116.21C47.1696 116.779 46.909 117.308 46.5102 117.733C46.1114 118.157 45.5921 118.457 45.018 118.595C44.6356 118.688 44.2379 118.706 43.8481 118.649C43.4583 118.592 43.084 118.46 42.747 118.261C42.4099 118.062 42.1168 117.8 41.8845 117.491C41.6521 117.181 41.4853 116.83 41.3935 116.457Z" fill="#3B9549"/>
<path d="M45.8295 116.136C45.8295 116.53 45.6684 116.908 45.3816 117.187C45.0948 117.466 44.7059 117.622 44.3004 117.622C43.8948 117.622 43.5059 117.466 43.2192 117.187C42.9324 116.908 42.7713 116.53 42.7713 116.136C42.6737 115.997 42.6078 115.839 42.5783 115.673C42.5487 115.508 42.5562 115.338 42.6 115.175C42.6439 115.012 42.7231 114.861 42.8325 114.73C42.9418 114.6 43.0787 114.494 43.2338 114.42C44.0833 114.172 44.3004 115.613 44.3004 115.613C44.3004 115.613 44.5175 114.172 45.3764 114.42C45.9711 114.594 46.207 115.392 45.8295 116.136Z" fill="white"/>
<path d="M94.3546 115.392H51.8516V117.072H94.3546V115.392Z" fill="#EBEBEB"/>
<path d="M29.0283 125.423L40.336 125.258L51.6437 125.166L74.2592 125.083L96.8747 125.166L108.182 125.258L119.49 125.423L108.182 125.597L96.8747 125.689L74.2592 125.771L51.6437 125.689L40.336 125.597L29.0283 125.423Z" fill="#EBEBEB"/>
<path d="M189.3 214.387C188.592 212.441 152.054 167.474 149.6 166.666C149.327 166.556 133.668 177.88 133.668 177.88C133.026 178.743 102.67 173.145 102.67 173.145L103.133 208.596L158.152 206.339C158.152 206.339 165.703 210.441 172.556 213.763C175.48 215.291 178.5 216.639 181.598 217.801C184.382 218.416 190.017 216.314 189.3 214.387Z" fill="#EB9481"/>
<path d="M181.617 217.782C178.522 216.622 175.505 215.273 172.584 213.744C165.713 210.422 158.18 206.32 158.18 206.32L145.91 206.825L126.088 177.119C130.317 177.761 133.46 178.128 133.639 177.853C133.639 177.853 149.289 166.537 149.572 166.648C152.026 167.473 188.564 212.441 189.272 214.368C189.98 216.296 184.383 218.425 181.617 217.782Z" fill="white"/>
<path d="M189.612 214.433C188.866 212.45 152.168 167.51 149.648 166.657C148.704 166.326 141.021 171.154 133.649 177.862L157.34 206.797C157.34 206.797 178.861 217.333 181.721 217.984C184.581 218.636 190.367 216.424 189.612 214.433Z" fill="#3B9549"/>
<path d="M187.252 215.259C180.909 207.917 156.047 177.495 150.355 169.731C150.308 169.667 150.355 169.63 150.355 169.731C156.802 176.917 181.419 207.486 187.327 215.194C187.507 215.259 187.384 215.378 187.252 215.259Z" fill="#263238"/>
<path d="M177.718 216.378C177.01 215.558 176.484 214.603 176.176 213.574C175.867 212.546 175.782 211.466 175.925 210.404C176.166 208.494 177.157 206.748 178.691 205.531C178.738 205.531 178.804 205.577 178.757 205.623C177.43 207.062 176.621 208.881 176.451 210.806C176.281 212.731 176.759 214.658 177.813 216.296C177.86 216.36 177.766 216.433 177.718 216.378Z" fill="#263238"/>
<path d="M160.068 208.569C157.557 205.586 155.802 201.227 156.812 197.409C156.812 197.262 157.067 197.317 157.085 197.409C157.819 201.142 158.962 204.788 160.493 208.284C160.532 208.339 160.547 208.406 160.534 208.472C160.522 208.537 160.483 208.595 160.427 208.633C160.37 208.67 160.301 208.685 160.234 208.673C160.167 208.661 160.107 208.623 160.068 208.569Z" fill="#263238"/>
<path d="M162.9 210.174C160.399 207.192 158.633 202.833 159.643 199.015C159.643 198.869 159.898 198.924 159.927 199.015C160.653 202.749 161.792 206.395 163.325 209.89C163.363 209.945 163.378 210.012 163.366 210.078C163.353 210.143 163.315 210.201 163.258 210.239C163.231 210.257 163.199 210.271 163.166 210.277C163.133 210.284 163.099 210.285 163.065 210.279C162.998 210.267 162.939 210.229 162.9 210.174Z" fill="#263238"/>
<path d="M165.731 211.781C163.23 208.798 161.474 204.439 162.475 200.621C162.475 200.474 162.73 200.529 162.758 200.621C163.49 204.353 164.629 207.999 166.156 211.496C166.195 211.551 166.21 211.618 166.197 211.684C166.185 211.749 166.146 211.807 166.09 211.845C166.033 211.883 165.964 211.897 165.897 211.885C165.83 211.873 165.77 211.835 165.731 211.781Z" fill="#263238"/>
<path d="M168.573 213.423C166.062 210.441 164.306 206.081 165.307 202.264C165.307 202.117 165.562 202.172 165.59 202.264C166.321 205.997 167.463 209.643 168.997 213.139C169.036 213.194 169.051 213.261 169.039 213.326C169.026 213.392 168.988 213.45 168.931 213.487C168.903 213.506 168.872 213.519 168.839 213.526C168.806 213.533 168.772 213.534 168.738 213.528C168.671 213.516 168.611 213.478 168.573 213.423Z" fill="#263238"/>
<path d="M144.56 177.293C141.804 173.898 147.222 169.74 149.978 173.136C152.734 176.531 147.316 180.689 144.56 177.293Z" fill="#263238"/>
<path d="M158.803 214.46C159.634 211.166 158.964 207.642 158.737 204.31C158.726 204.238 158.697 204.168 158.653 204.109C158.609 204.049 158.551 204 158.484 203.966C158.417 203.932 158.342 203.914 158.266 203.913C158.191 203.912 158.116 203.929 158.048 203.962C158.038 203.95 158.024 203.94 158.01 203.934C157.995 203.928 157.979 203.924 157.963 203.924C157.947 203.924 157.931 203.928 157.917 203.934C157.902 203.94 157.889 203.95 157.878 203.962C155.225 206.38 153.273 209.434 152.215 212.817C151.639 214.8 151.932 217.709 154.48 218.232C157.029 218.755 158.322 216.387 158.803 214.46ZM156.349 216.58C152.725 218.893 152.904 213.928 153.395 212.487C153.721 211.542 154.119 210.622 154.584 209.734C155.562 207.933 156.633 206.181 157.793 204.485C157.793 206.127 157.954 207.752 158.02 209.385C158.105 211.377 158.341 215.314 156.349 216.58Z" fill="#263238"/>
<path d="M147.137 194.757C145.306 196.592 146.703 199.144 148.317 200.484C151.122 202.745 154.492 204.245 158.086 204.833C158.171 204.833 158.208 204.788 158.208 204.723C158.284 204.716 158.357 204.69 158.421 204.65C158.485 204.609 158.538 204.554 158.576 204.489C158.614 204.425 158.636 204.353 158.639 204.278C158.642 204.204 158.627 204.13 158.595 204.063C156.896 201.163 155.452 197.868 152.932 195.565C151.422 194.216 148.892 193.059 147.137 194.757ZM155.094 200.181C155.971 201.585 156.764 203.026 157.68 204.402C155.792 203.549 153.848 202.778 152.017 201.741C151.134 201.252 150.285 200.706 149.478 200.107C148.25 199.19 145.296 195.115 149.629 195.106C152.045 195.069 154.084 198.51 155.113 200.181H155.094Z" fill="#263238"/>
<path d="M100.887 164.693L76.072 162.793C76.072 162.793 40.2044 152.698 19.5145 157.975C-4.23362 164.041 -7.5844 191.013 16.5601 201.823C40.4781 212.505 145.598 208.578 145.598 208.578L123.058 176.118C123.058 176.118 88.4368 168.217 58.1288 169.823L101.038 174.623L100.887 164.693Z" fill="#37474F"/>
<path d="M100.632 171.557C96.9412 170.97 93.2034 170.64 89.4846 170.337C85.7656 170.034 81.9335 169.731 78.1579 169.502C70.6456 169.024 63.1134 168.914 55.5897 169.171C54.8818 169.171 54.1833 169.235 53.4754 169.281C53.3234 169.239 53.1689 169.205 53.0129 169.18C52.6542 169.098 52.2861 169.015 51.9274 168.96C51.2384 168.85 50.5588 168.767 49.8698 168.676C48.4445 168.492 47.0381 168.373 45.594 168.143C45.509 168.143 45.4713 168.263 45.594 168.272C47.0287 168.556 48.4256 168.923 49.8698 169.19L51.1062 169.419C48.3501 169.612 45.6034 169.878 42.8567 170.181C42.7717 170.181 42.7717 170.318 42.8567 170.309C46.6322 170.015 50.4078 169.915 54.1267 169.905C57.8456 169.896 61.5739 169.905 65.3022 170.025C72.8533 170.291 80.4044 170.796 87.8799 171.41C92.0897 171.75 96.3183 172.172 100.547 172.255C100.962 172.273 101.047 171.622 100.632 171.557Z" fill="#263238"/>
<path d="M134.867 207.835C133.479 205.77 132.28 203.558 131.006 201.411L127.155 194.987C124.588 190.719 115.394 176.385 114.498 175.384C114.441 175.32 114.328 175.384 114.356 175.476C114.8 176.587 120.548 186.085 121.907 188.205C124.55 192.435 127.325 196.583 130.053 200.759C130.836 201.952 131.639 203.136 132.431 204.32C133.224 205.504 134.064 206.669 134.791 207.89C134.763 207.981 134.867 207.917 134.867 207.835Z" fill="#263238"/>
<path d="M11.378 220.921C11.9916 218.948 46.3017 172.356 48.7086 171.411C48.9824 171.291 65.1794 181.873 65.1794 181.873C65.859 182.708 95.9028 175.724 95.9028 175.724L97.1676 211.156L42.1014 211.432C42.1014 211.432 34.7864 215.874 28.0753 219.517C25.2273 221.176 22.2768 222.662 19.2406 223.968C16.4844 224.729 10.7551 222.885 11.378 220.921Z" fill="#EB9481"/>
<path d="M19.2222 223.968C22.2569 222.665 25.2045 221.179 28.0475 219.517C34.7491 215.846 42.0736 211.432 42.0736 211.432L54.3441 211.377L72.7026 180.79C68.5118 181.625 65.3875 182.139 65.1516 181.872C65.1516 181.872 48.9545 171.282 48.6808 171.411C46.2739 172.328 11.9637 218.948 11.3502 220.921C10.7367 222.894 16.4849 224.729 19.2222 223.968Z" fill="white"/>
<path d="M11.0575 220.994C11.6994 218.975 46.1794 172.356 48.6429 171.438C49.5868 171.062 57.4872 175.531 65.1798 181.882L42.9136 211.891C42.9136 211.891 21.9405 223.399 19.1088 224.179C16.2772 224.959 10.4157 223.013 11.0575 220.994Z" fill="#3B9549"/>
<path d="M13.4738 221.683C19.4485 214.011 42.8002 182.533 48.1143 174.503C48.1143 174.439 48.1143 174.411 48.0576 174.503C41.9696 181.973 18.8728 213.643 13.3416 221.618C13.2189 221.738 13.3416 221.829 13.4738 221.683Z" fill="#263238"/>
<path d="M23.0539 222.38C23.7188 221.527 24.1946 220.549 24.4512 219.508C24.7079 218.467 24.7399 217.386 24.5452 216.332C24.2274 214.442 23.1727 212.743 21.6003 211.588C21.6003 211.588 21.487 211.643 21.5248 211.689C22.9198 213.065 23.8177 214.844 24.0832 216.759C24.3487 218.674 23.9676 220.621 22.9972 222.307C22.9959 222.315 22.9963 222.324 22.9985 222.332C23.0006 222.34 23.0044 222.348 23.0097 222.355C23.015 222.362 23.0216 222.368 23.0292 222.372C23.0368 222.376 23.0451 222.379 23.0539 222.38Z" fill="#263238"/>
<path d="M40.2987 213.763C42.6584 210.67 44.2063 206.256 43.0076 202.475C43.0076 202.328 42.7528 202.392 42.7339 202.521C42.1965 206.279 41.2472 209.971 39.9023 213.534C39.8929 213.582 39.8989 213.631 39.9195 213.676C39.9402 213.721 39.9745 213.758 40.0178 213.783C40.0611 213.808 40.1113 213.82 40.1616 213.816C40.2118 213.813 40.2597 213.794 40.2987 213.763Z" fill="#263238"/>
<path d="M37.5424 215.497C39.9021 212.405 41.4501 207.99 40.2608 204.21C40.2608 204.063 39.9965 204.127 39.9776 204.255C39.4402 208.014 38.4909 211.706 37.146 215.268C37.1365 215.316 37.1425 215.366 37.1632 215.411C37.1839 215.455 37.2182 215.493 37.2615 215.518C37.3048 215.543 37.355 215.554 37.4052 215.551C37.4555 215.547 37.5034 215.528 37.5424 215.497Z" fill="#263238"/>
<path d="M34.8149 217.232C37.1652 214.139 38.7131 209.725 37.5239 205.944C37.4767 205.797 37.269 205.862 37.2501 205.944C36.7085 209.702 35.7593 213.393 34.4185 216.956C34.3899 217.007 34.3815 217.067 34.3949 217.124C34.4084 217.181 34.4427 217.231 34.4914 217.264C34.5402 217.298 34.6 217.314 34.6596 217.308C34.7192 217.301 34.7745 217.274 34.8149 217.232Z" fill="#263238"/>
<path d="M32.04 218.976C34.3997 215.874 35.9476 211.459 34.7489 207.679C34.7489 207.532 34.4941 207.596 34.4752 207.724C33.9377 211.483 32.9885 215.175 31.6436 218.737C31.6314 218.786 31.6355 218.837 31.6551 218.884C31.6748 218.93 31.709 218.969 31.753 218.996C31.7969 219.022 31.8483 219.034 31.8998 219.031C31.9514 219.027 32.0004 219.008 32.04 218.976Z" fill="#263238"/>
<path d="M54.2685 181.818C56.8547 178.303 51.2386 174.393 48.6524 177.908C46.0661 181.423 51.6728 185.332 54.2685 181.818Z" fill="#263238"/>
<path d="M46.3773 223.142C48.8975 222.508 49.0485 219.59 48.3689 217.635C47.143 214.299 45.0332 211.336 42.2526 209.046C42.1865 208.991 42.1299 209.046 42.0921 209.046C42.0218 209.017 41.9455 209.004 41.8692 209.009C41.793 209.013 41.7189 209.035 41.6529 209.073C41.5869 209.11 41.5308 209.162 41.4891 209.224C41.4473 209.286 41.4211 209.357 41.4125 209.431C41.3559 212.762 40.8556 216.314 41.8467 219.572C42.4225 221.499 43.9893 223.747 46.3773 223.142ZM42.3658 214.524C42.3658 212.891 42.4225 211.257 42.3658 209.624C43.6074 211.262 44.7605 212.962 45.8205 214.717C46.3243 215.571 46.7689 216.457 47.1513 217.369C47.7082 218.792 48.0952 223.738 44.3952 221.609C42.3658 220.425 42.3658 216.479 42.3658 214.524Z" fill="#263238"/>
<path d="M46.8118 200.447C44.3672 202.87 43.0835 206.229 41.5355 209.202C41.507 209.271 41.4956 209.345 41.5024 209.419C41.5091 209.492 41.5338 209.564 41.5743 209.626C41.6148 209.689 41.6701 209.742 41.7356 209.779C41.801 209.817 41.8748 209.84 41.9508 209.844C41.9491 209.86 41.9511 209.876 41.9568 209.891C41.9625 209.906 41.9717 209.919 41.9836 209.93C41.9956 209.94 42.0099 209.948 42.0255 209.952C42.0412 209.957 42.0576 209.957 42.0736 209.955C45.6339 209.198 48.9277 207.546 51.6257 205.164C53.1642 203.751 54.4573 201.108 52.5224 199.392C50.5874 197.675 48.2371 199.034 46.8118 200.447ZM50.04 199.841C54.3629 199.658 51.6068 203.833 50.4269 204.834C49.65 205.468 48.8301 206.05 47.9728 206.577C46.187 207.64 44.3472 208.614 42.4606 209.496C43.31 208.082 44.0368 206.605 44.8391 205.164C45.7925 203.448 47.6519 199.942 50.04 199.841Z" fill="#263238"/>
<path d="M97.2718 164.785L121.973 164.152C121.973 164.152 147.458 151.405 168.431 155.736C192.444 160.692 196.295 189.756 178.738 200.521C156.5 214.158 55.873 214.222 55.873 214.222L76.6385 177.844C76.6385 177.844 109.892 170.135 140.247 170.346L97.6116 177.119L97.2718 164.785Z" fill="#37474F"/>
<path d="M75.2414 180.221C75.266 180.162 75.2819 180.1 75.2886 180.037V179.881L75.3736 179.532C75.4397 179.294 75.5246 179.064 75.6096 178.826C75.6945 178.587 75.7983 178.367 75.8927 178.137C76.008 177.914 76.1405 177.699 76.2892 177.495C76.2892 177.495 76.2892 177.495 76.3458 177.449H76.393H76.4496C80.1119 176.687 105.002 172.567 108.712 172.062C112.421 171.558 116.187 171.145 119.944 170.713C127.422 169.888 134.939 169.428 142.465 169.337C143.173 169.337 143.881 169.337 144.589 169.337C144.737 169.287 144.888 169.247 145.042 169.217C145.4 169.126 145.759 169.025 146.118 168.951C146.797 168.804 147.477 168.685 148.156 168.566C149.572 168.318 150.988 168.134 152.404 167.841C152.489 167.841 152.527 167.951 152.404 167.969C150.988 168.318 149.572 168.749 148.185 169.089L146.958 169.373C149.723 169.447 152.479 169.584 155.245 169.759C155.263 169.759 155.279 169.766 155.292 169.778C155.304 169.79 155.311 169.806 155.311 169.823C155.311 169.84 155.304 169.856 155.292 169.868C155.279 169.881 155.263 169.887 155.245 169.887C151.469 169.768 147.694 169.841 143.966 169.997C140.237 170.153 136.528 170.328 132.809 170.64C125.258 171.245 117.801 172.099 110.326 173.053C106.135 173.595 80.7537 177.862 76.5346 178.147H76.478C76.4518 178.244 76.417 178.339 76.3741 178.431L76.0343 179.101C75.9211 179.312 75.8078 179.523 75.6756 179.734L75.4774 180.037L75.3736 180.184C75.3736 180.23 75.2792 180.294 75.2698 180.34C75.2603 180.386 75.1942 180.303 75.2414 180.221Z" fill="#263238"/>
<path d="M63.6505 211.872C64.9436 209.743 66.0291 207.486 67.1995 205.292L70.7296 198.703C73.0893 194.326 81.5749 179.578 82.4244 178.514C82.4716 178.449 82.5943 178.514 82.5659 178.596C82.1789 179.734 76.9026 189.48 75.685 191.655C73.2498 196.005 70.6824 200.282 68.134 204.577C67.4166 205.806 66.6615 207.018 65.9347 208.247C65.2079 209.477 64.4245 210.67 63.7543 211.918C63.7555 211.929 63.7537 211.941 63.7489 211.951C63.7441 211.961 63.7367 211.97 63.7272 211.977C63.7178 211.984 63.7067 211.988 63.6951 211.989C63.6835 211.99 63.6719 211.988 63.6613 211.983C63.6507 211.979 63.6416 211.971 63.6348 211.962C63.6281 211.953 63.6239 211.942 63.6229 211.931C63.6218 211.92 63.6237 211.908 63.6286 211.898C63.6334 211.888 63.641 211.879 63.6505 211.872Z" fill="#263238"/>
<path d="M146.769 67.3977L141.568 94.7729C141.323 95.5805 141.776 96.2045 142.578 96.1495L156.878 95.2317C157.312 95.1705 157.719 94.9916 158.053 94.7157C158.387 94.4398 158.634 94.0779 158.766 93.6717L163.967 66.2965C164.212 65.4889 163.759 64.874 162.957 64.9199L148.666 65.8376C148.231 65.8983 147.823 66.0768 147.487 66.3527C147.152 66.6286 146.903 66.9907 146.769 67.3977Z" fill="#37474F"/>
<path d="M148.468 67.2783L143.267 94.6537C143.022 95.4613 143.475 96.0854 144.267 96.0303L158.567 95.1126C159.001 95.0524 159.409 94.8739 159.743 94.5978C160.077 94.3217 160.324 93.9593 160.455 93.5525L165.665 66.1771C165.911 65.3695 165.458 64.7454 164.655 64.8005L150.356 65.7182C149.922 65.7805 149.516 65.9598 149.182 66.2355C148.848 66.5113 148.601 66.8726 148.468 67.2783Z" fill="#455A64"/>
<path d="M152.47 68.2603C152.481 68.4945 152.42 68.7266 152.296 68.9272C152.171 69.1278 151.988 69.2879 151.769 69.3871C151.551 69.4863 151.307 69.5202 151.068 69.4845C150.83 69.4488 150.608 69.3451 150.43 69.1866C150.253 69.0281 150.128 68.8218 150.071 68.594C150.014 68.3662 150.028 68.1271 150.111 67.907C150.194 67.6868 150.342 67.4957 150.537 67.3576C150.732 67.2196 150.964 67.1409 151.205 67.1316C151.527 67.1191 151.84 67.2308 152.077 67.4423C152.314 67.6538 152.455 67.9479 152.47 68.2603Z" fill="#263238"/>
<path d="M103.369 111.072C112.421 127.397 131.837 148.193 139.369 147.881C142.946 147.734 149.384 148.22 153.848 143.971C163.598 134.702 171.216 117.55 172.424 107.905C172.849 104.482 155.434 98.031 153.084 100.931C147.571 107.731 141.464 120.808 140.417 120.79C136.547 120.707 120.803 109.328 109.807 101.316C96.46 91.5795 99.7636 104.565 103.369 111.072Z" fill="#EB9481"/>
<path d="M171.839 90.3311C169.649 83.5309 168.016 82.0717 169.3 75.4183C170.14 71.0225 167.62 68.6181 164.656 72.2614C159.814 78.2265 160.748 87.5779 162.032 90.7349L171.839 90.3311Z" fill="#EB9481"/>
<path d="M171.763 110.916C171.763 110.916 174.377 101.133 172.782 93.6626C171.678 88.4959 167.987 77.5109 152.649 72.436C149.006 71.2338 142.946 72.0322 148.156 76.1068C151.856 78.9976 155.094 79.7776 156.934 81.8058C156.934 81.8058 149.383 83.6963 148.251 87.312C147.289 90.4445 146.56 93.6403 146.07 96.8746C146.658 97.0964 147.26 97.2803 147.873 97.4252C147.873 97.4252 146.929 100.821 149.761 105.409L171.763 110.916Z" fill="#EB9481"/>
<path d="M170.913 88.8903C168.648 87.2201 163.778 83.7604 158.784 82.2737C153.234 80.631 142.097 78.9057 140.851 82.8977C139.963 85.8344 144.154 86.853 144.154 86.853C144.154 86.853 139.435 87.0825 139.189 89.8998C139.001 92.4694 142.295 93.0659 142.295 93.0659C142.295 93.0659 139.463 93.69 139.746 96.1953C140.114 99.2054 146.052 97.4067 149.185 100.141C149.874 100.756 170.913 88.8903 170.913 88.8903Z" fill="#EB9481"/>
<path d="M157.973 88.2663C153.677 86.4357 148.911 85.9172 144.305 86.7796C144.192 86.7796 144.154 86.9081 144.258 86.8989C148.876 86.8331 153.484 87.3139 157.982 88.3306L157.973 88.2663Z" fill="#263238"/>
<path d="M156.095 93.6625C153.914 92.8089 147.477 91.6065 142.342 92.9649C142.219 92.9649 142.191 93.0934 142.342 93.0842C146.946 92.7873 151.569 92.9998 156.123 93.7175L156.095 93.6625Z" fill="#263238"/>
<path d="M172.98 114.898C172.98 114.898 160.549 142.383 152.63 145.907C144.711 149.431 139.822 149.009 136.792 148.725C135.614 148.522 134.496 148.071 133.517 147.403C125.022 142.172 109.297 122.91 102.727 111.962C97.8001 103.702 97.8661 96.0393 104.747 98.1501C107.083 98.9763 109.261 100.173 111.194 101.692C124.163 111.136 139.104 119.991 139.775 119.606C140.445 119.221 146.948 107.859 146.948 107.859L172.98 114.898Z" fill="#3B9549"/>
<path d="M140.907 125.323C140.819 125.932 140.819 126.55 140.907 127.159C141 127.795 141.191 128.414 141.474 128.994C141.566 128.386 141.566 127.767 141.474 127.159C141.381 126.523 141.19 125.904 140.907 125.323Z" fill="white"/>
<path d="M157.133 132.16C157.045 132.769 157.045 133.387 157.133 133.996C157.22 134.609 157.391 135.208 157.643 135.776C157.736 135.168 157.736 134.549 157.643 133.941C157.564 133.326 157.392 132.726 157.133 132.16Z" fill="white"/>
<path d="M128.533 138.795C128.445 139.404 128.445 140.022 128.533 140.631C128.611 141.246 128.782 141.846 129.043 142.411C129.131 141.802 129.131 141.184 129.043 140.576C128.955 139.963 128.783 139.364 128.533 138.795Z" fill="white"/>
<path d="M120.709 111.796C120.549 113.044 120.731 114.31 121.237 115.467C121.325 114.858 121.325 114.241 121.237 113.632C121.15 112.999 120.972 112.381 120.709 111.796Z" fill="white"/>
<path d="M118.141 122.855C118.767 122.94 119.402 122.94 120.028 122.855C120.661 122.779 121.278 122.612 121.86 122.359C121.233 122.274 120.598 122.274 119.972 122.359C119.341 122.444 118.726 122.611 118.141 122.855Z" fill="white"/>
<path d="M151.252 126.057C151.879 126.143 152.514 126.143 153.14 126.057C153.771 125.973 154.387 125.807 154.971 125.562C154.346 125.471 153.709 125.471 153.084 125.562C152.451 125.638 151.834 125.805 151.252 126.057Z" fill="white"/>
<path d="M134.432 135.712C135.058 135.797 135.694 135.797 136.32 135.712C136.952 135.636 137.57 135.469 138.151 135.216C136.867 135.069 135.566 135.249 134.375 135.739L134.432 135.712Z" fill="white"/>
<path d="M166.421 116.578C167.047 116.663 167.682 116.663 168.309 116.578C168.941 116.502 169.558 116.335 170.14 116.082C168.856 115.934 167.555 116.115 166.364 116.605L166.421 116.578Z" fill="white"/>
<path d="M150.035 144.714C150.661 144.8 151.296 144.8 151.922 144.714C152.555 144.639 153.172 144.472 153.754 144.219C153.128 144.128 152.492 144.128 151.866 144.219C151.234 144.295 150.617 144.462 150.035 144.714Z" fill="white"/>
<path d="M101.368 99.0586C100.848 99.2823 100.298 99.4367 99.7354 99.5176C99.8155 99.3413 99.9169 99.1749 100.037 99.0218C100.481 98.9793 100.928 98.9916 101.368 99.0586Z" fill="white"/>
<path d="M132.837 118.615C132.334 118.994 131.886 119.439 131.506 119.937C131.115 120.429 130.797 120.973 130.562 121.552C131.57 120.784 132.352 119.771 132.828 118.615H132.837Z" fill="white"/>
<path d="M148.402 133.977C147.896 134.357 147.448 134.805 147.071 135.308C146.682 135.798 146.364 136.339 146.127 136.914C146.633 136.537 147.081 136.092 147.458 135.592C147.849 135.1 148.167 134.556 148.402 133.977Z" fill="white"/>
<path d="M157.246 113.613C156.74 113.99 156.292 114.435 155.915 114.935C155.524 115.427 155.206 115.971 154.971 116.55C155.477 116.17 155.925 115.722 156.302 115.219C156.691 114.729 157.009 114.188 157.246 113.613Z" fill="white"/>
<path d="M123.011 132.059C122.507 132.442 122.059 132.89 121.68 133.39C121.291 133.881 120.973 134.421 120.736 134.996C121.242 134.619 121.69 134.174 122.067 133.675C122.462 133.184 122.78 132.64 123.011 132.059Z" fill="white"/>
<path d="M111.269 106.217C110.764 106.594 110.315 107.039 109.939 107.538C109.544 108.028 109.226 108.573 108.995 109.153C110.002 108.385 110.784 107.372 111.26 106.217H111.269Z" fill="white"/>
<path d="M110.542 118.899C110.151 118.407 109.691 117.972 109.174 117.605C108.672 117.224 108.115 116.915 107.522 116.688C107.905 117.184 108.363 117.62 108.881 117.982C109.386 118.365 109.945 118.674 110.542 118.899Z" fill="white"/>
<path d="M165.542 124.901C165.152 124.412 164.695 123.976 164.183 123.607C163.677 123.227 163.117 122.918 162.522 122.689C162.912 123.179 163.369 123.615 163.881 123.984C164.388 124.364 164.947 124.673 165.542 124.901Z" fill="white"/>
<path d="M148.619 119.955C148.229 119.465 147.772 119.03 147.26 118.661C146.756 118.277 146.196 117.968 145.599 117.743C146.389 118.723 147.431 119.483 148.619 119.946V119.955Z" fill="white"/>
<path d="M129.977 130.104C129.592 129.61 129.134 129.174 128.618 128.811C128.116 128.423 127.556 128.114 126.957 127.893C127.351 128.383 127.811 128.818 128.326 129.187C128.83 129.565 129.386 129.874 129.977 130.104Z" fill="white"/>
<path d="M141.19 145.238C140.803 144.746 140.345 144.31 139.831 143.944C139.325 143.563 138.765 143.254 138.17 143.026C138.561 143.518 139.022 143.954 139.539 144.32C140.043 144.698 140.599 145.007 141.19 145.238Z" fill="white"/>
<path d="M133.517 147.403C125.022 142.172 109.297 122.91 102.727 111.961C97.8001 103.702 97.8661 96.0394 104.747 98.1501C108.57 104.62 125.258 132.922 133.517 147.403Z" fill="#263238"/>
<path d="M169.79 119.955C168.847 119.505 159.917 116.66 157.964 116.082C156.01 115.504 148.062 113.081 145.995 112.65C145.986 112.647 145.977 112.646 145.968 112.646C145.959 112.647 145.95 112.649 145.941 112.653C145.933 112.656 145.926 112.662 145.92 112.668C145.913 112.675 145.909 112.683 145.905 112.691C145.902 112.7 145.901 112.709 145.901 112.718C145.902 112.727 145.904 112.735 145.908 112.743C145.912 112.751 145.918 112.759 145.924 112.765C145.931 112.771 145.939 112.775 145.948 112.778C147.892 113.577 155.906 116.055 157.888 116.679C159.87 117.303 168.752 119.927 169.762 120.083C169.866 120.093 169.875 119.982 169.79 119.955Z" fill="#263238"/>
<path d="M124.531 165.546C123.634 166.464 65.8969 168.3 65.6043 167.951C64.802 167.033 71.9094 131.298 77.8181 117.624C85.3692 100.096 89.7111 98.4805 92.2973 97.4343C95.5914 96.0761 101.623 96.333 103.086 96.9112C104.747 97.5536 111.996 105.308 114.205 111.595C118.641 124.241 125.314 164.711 124.531 165.546Z" fill="#3B9549"/>
<path d="M99.1028 107.465C98.9509 108.713 99.1364 109.978 99.6408 111.135C99.7298 110.527 99.7298 109.909 99.6408 109.3C99.5587 108.665 99.3773 108.046 99.1028 107.465Z" fill="white"/>
<path d="M99.5938 134.262C99.434 135.509 99.6164 136.776 100.122 137.933C100.21 137.324 100.21 136.706 100.122 136.097C100.035 135.464 99.8569 134.847 99.5938 134.262Z" fill="white"/>
<path d="M66.7655 162.289C66.6162 163.537 66.8016 164.801 67.3035 165.959C67.3916 165.351 67.3916 164.733 67.3035 164.124C67.2201 163.489 67.0387 162.871 66.7655 162.289Z" fill="white"/>
<path d="M90.4188 163.399C90.3298 164.008 90.3298 164.626 90.4188 165.234C90.5042 165.852 90.679 166.454 90.9379 167.024C91.026 166.415 91.026 165.797 90.9379 165.188C90.8582 164.57 90.6832 163.967 90.4188 163.399Z" fill="white"/>
<path d="M109.891 151.019C109.803 151.628 109.803 152.246 109.891 152.854C109.969 153.469 110.141 154.069 110.401 154.635C110.49 154.026 110.49 153.408 110.401 152.799C110.318 152.186 110.146 151.586 109.891 151.019Z" fill="white"/>
<path d="M82.1227 123.488C82.0346 124.097 82.0346 124.715 82.1227 125.323C82.2004 125.938 82.3722 126.538 82.6324 127.104C82.726 126.495 82.726 125.877 82.6324 125.268C82.5538 124.654 82.382 124.054 82.1227 123.488Z" fill="white"/>
<path d="M79.3283 147.091C79.2402 147.7 79.2402 148.318 79.3283 148.927C79.4149 149.54 79.5863 150.139 79.838 150.707C79.9995 149.46 79.8171 148.193 79.3094 147.036L79.3283 147.091Z" fill="white"/>
<path d="M114.016 128.388C113.928 128.997 113.928 129.615 114.016 130.224C114.103 130.837 114.274 131.436 114.526 132.004C114.62 131.396 114.62 130.777 114.526 130.169C114.447 129.554 114.276 128.954 114.016 128.388Z" fill="white"/>
<path d="M93.515 118.798C94.1411 118.885 94.7766 118.885 95.4027 118.798C96.0381 118.723 96.6584 118.556 97.2433 118.303C95.9593 118.143 94.6547 118.324 93.4678 118.826L93.515 118.798Z" fill="white"/>
<path d="M79.5928 136.474C80.8766 136.621 82.1779 136.441 83.3683 135.951C82.7422 135.864 82.1066 135.864 81.4805 135.951C80.8275 136.03 80.1909 136.207 79.5928 136.474Z" fill="white"/>
<path d="M101.632 146.495C102.258 146.581 102.894 146.581 103.52 146.495C104.152 146.415 104.768 146.248 105.351 145.999C104.725 145.914 104.09 145.914 103.463 145.999C102.833 146.083 102.217 146.25 101.632 146.495Z" fill="white"/>
<path d="M85.2749 157.856C85.9011 157.942 86.5365 157.942 87.1627 157.856C87.7932 157.772 88.4092 157.605 88.9938 157.361C88.3676 157.275 87.7322 157.275 87.106 157.361C86.4757 157.446 85.8599 157.613 85.2749 157.856Z" fill="white"/>
<path d="M117.527 157.544C118.154 157.63 118.789 157.63 119.415 157.544C120.047 157.469 120.665 157.302 121.246 157.048C120.62 156.957 119.984 156.957 119.358 157.048C118.726 157.125 118.109 157.292 117.527 157.544Z" fill="white"/>
<path d="M97.6304 99.5727C98.2565 99.659 98.892 99.659 99.5182 99.5727C100.152 99.4885 100.771 99.3217 101.359 99.0769C100.733 98.9913 100.097 98.9913 99.471 99.0769C98.8363 99.156 98.2165 99.3229 97.6304 99.5727Z" fill="white"/>
<path d="M91.8252 104.299C91.3143 104.677 90.8628 105.125 90.4849 105.629C90.0937 106.119 89.776 106.659 89.541 107.235C90.0491 106.861 90.4976 106.416 90.8719 105.914C91.2662 105.422 91.5871 104.878 91.8252 104.299Z" fill="white"/>
<path d="M105.286 124.333C104.279 125.104 103.495 126.115 103.011 127.269C103.521 126.894 103.97 126.445 104.342 125.938C104.734 125.45 105.052 124.909 105.286 124.333Z" fill="white"/>
<path d="M118.66 144.448C118.156 144.831 117.708 145.279 117.329 145.779C116.938 146.272 116.62 146.815 116.385 147.394C116.891 147.014 117.339 146.566 117.716 146.064C118.111 145.573 118.429 145.029 118.66 144.448Z" fill="white"/>
<path d="M103.785 159.747C103.279 160.123 102.83 160.568 102.454 161.068C102.059 161.559 101.741 162.103 101.51 162.683C102.02 162.311 102.469 161.866 102.841 161.362C103.235 160.871 103.553 160.327 103.785 159.747Z" fill="white"/>
<path d="M72.9852 154.974C72.4768 155.352 72.0283 155.8 71.6543 156.305C71.2617 156.793 70.9437 157.334 70.7104 157.911C71.2207 157.539 71.6696 157.093 72.0413 156.59C72.4357 156.099 72.7537 155.555 72.9852 154.974Z" fill="white"/>
<path d="M90.6835 140.778C90.1799 141.157 89.7321 141.602 89.3526 142.099C88.9613 142.592 88.6435 143.135 88.4087 143.714C88.9123 143.335 89.3601 142.89 89.7396 142.393C90.1324 141.901 90.4503 141.357 90.6835 140.778Z" fill="white"/>
<path d="M111.269 106.217C110.764 106.594 110.315 107.039 109.939 107.538C109.544 108.028 109.226 108.573 108.995 109.153C110.002 108.385 110.784 107.372 111.26 106.217H111.269Z" fill="white"/>
<path d="M110.542 118.899C110.151 118.407 109.691 117.972 109.174 117.605C108.672 117.224 108.115 116.915 107.522 116.688C107.905 117.184 108.363 117.62 108.881 117.982C109.386 118.365 109.945 118.674 110.542 118.899Z" fill="white"/>
<path d="M72.6267 140.612C72.0591 140.399 71.5253 140.108 71.041 139.75L71.1543 139.245L71.2581 139.319C71.7749 139.685 72.2357 140.12 72.6267 140.612Z" fill="white"/>
<path d="M112.477 140.181C112.09 139.689 111.632 139.254 111.118 138.887C110.612 138.507 110.052 138.198 109.457 137.969C109.848 138.461 110.309 138.897 110.826 139.263C111.33 139.642 111.886 139.95 112.477 140.181Z" fill="white"/>
<path d="M114.686 166.317C114.293 165.828 113.832 165.392 113.317 165.023C112.813 164.64 112.253 164.33 111.656 164.106C112.05 164.596 112.51 165.031 113.025 165.4C113.531 165.78 114.091 166.089 114.686 166.317Z" fill="white"/>
<path d="M85.2751 114.715C84.8839 114.212 84.4197 113.767 83.8971 113.393C83.3926 113.01 82.8329 112.7 82.2358 112.475C82.6209 112.969 83.0789 113.405 83.595 113.769C84.1049 114.162 84.6709 114.48 85.2751 114.715Z" fill="white"/>
<path d="M96.8939 152.854C96.5029 152.362 96.0421 151.927 95.5253 151.561C95.0208 151.182 94.465 150.873 93.8735 150.643C94.2583 151.134 94.7127 151.57 95.2233 151.937C95.7327 152.318 96.2952 152.627 96.8939 152.854Z" fill="white"/>
<path d="M80.0267 165.216C79.6392 164.724 79.1815 164.288 78.6675 163.922C78.1631 163.539 77.6034 163.229 77.0063 163.004C77.3914 163.498 77.8494 163.934 78.3655 164.298C78.8713 164.68 79.4308 164.989 80.0267 165.216Z" fill="white"/>
<path d="M93.4394 129.389C93.0492 128.899 92.5919 128.464 92.0802 128.095C91.5759 127.711 91.0161 127.402 90.4189 127.177C90.8091 127.667 91.2664 128.102 91.7782 128.471C92.2847 128.851 92.844 129.16 93.4394 129.389Z" fill="white"/>
<path d="M82.7734 102.234C58.0531 120.661 36.7685 146.109 38.9111 154.084C41.1765 162.509 58.4873 171.814 73.7027 173.604C76.8175 173.971 86.2374 151.689 83.0377 150.661C80.5458 149.89 69.2192 146.871 67.8506 145.375C66.9067 144.338 84.1987 120.193 89.777 107.621C95.6196 94.5067 89.39 97.3057 82.7734 102.234Z" fill="#EB9481"/>
<path d="M76.6096 150.102C76.6096 150.102 86.124 150.937 92.3158 151.772C95.7705 152.24 101.623 153.552 104.001 155.02C107.55 157.223 120.991 168.639 118.207 171.86C115.696 174.779 111.816 170.227 111.816 170.227C111.816 170.227 116.536 174.815 113.128 176.963C109.721 179.11 105.228 172.732 105.228 172.732C105.228 172.732 110.589 177.256 106.729 179.22C103.369 180.918 97.4128 174.09 97.4128 174.09C97.4128 174.09 103.576 178.238 100.311 180.312C96.7143 182.597 86.4543 173.448 86.4543 173.448C78.3275 174.366 73.3155 173.916 67.5766 172.402C66.5195 172.126 76.6096 150.102 76.6096 150.102Z" fill="#EB9481"/>
<path d="M106.673 174.246C106.304 173.76 105.917 173.283 105.54 172.796C104.835 171.83 104.066 170.911 103.237 170.043C102.425 169.199 101.576 168.401 100.688 167.63C99.801 166.859 98.7439 166.079 97.8566 165.235C97.8498 165.228 97.8418 165.224 97.8332 165.221C97.8245 165.218 97.8153 165.216 97.8061 165.217C97.7969 165.217 97.7879 165.219 97.7795 165.223C97.7712 165.227 97.7637 165.232 97.7575 165.239C97.7513 165.246 97.7465 165.254 97.7434 165.262C97.7403 165.27 97.7389 165.279 97.7393 165.288C97.7398 165.297 97.742 165.306 97.746 165.314C97.7499 165.322 97.7554 165.329 97.7622 165.335C98.6704 166.157 99.5277 167.031 100.33 167.951C101.151 168.823 101.953 169.704 102.765 170.585C103.577 171.466 104.398 172.246 105.209 173.09C105.615 173.503 106.002 173.943 106.389 174.375C106.728 174.811 107.104 175.219 107.513 175.595C107.56 175.595 107.607 175.595 107.588 175.531C107.329 175.073 107.023 174.642 106.673 174.246Z" fill="#263238"/>
<path d="M112.779 171.209C111.52 169.386 110.133 167.65 108.626 166.014C107.093 164.39 105.399 162.918 103.567 161.619C103.56 161.613 103.552 161.608 103.544 161.605C103.535 161.602 103.526 161.6 103.517 161.601C103.507 161.601 103.498 161.604 103.49 161.607C103.482 161.611 103.474 161.617 103.468 161.623C103.462 161.63 103.457 161.638 103.454 161.646C103.451 161.654 103.449 161.663 103.45 161.672C103.45 161.681 103.452 161.69 103.456 161.698C103.46 161.706 103.466 161.713 103.473 161.72C105.002 163.344 106.559 164.95 108.107 166.565C108.862 167.345 112.194 171.025 112.6 171.365C112.694 171.42 112.827 171.282 112.779 171.209Z" fill="#263238"/>
<path d="M101.009 177.266C99.789 175.576 98.4552 173.967 97.0168 172.448C95.4013 171.031 93.6821 169.731 91.8727 168.556C91.8066 168.556 91.7217 168.611 91.7783 168.657C93.3829 170.08 95.0158 171.466 96.4977 172.952C97.2528 173.686 100.056 176.752 100.83 177.385C100.846 177.408 100.871 177.424 100.9 177.429C100.928 177.434 100.957 177.428 100.981 177.412C101.005 177.397 101.021 177.372 101.027 177.345C101.032 177.317 101.026 177.289 101.009 177.266Z" fill="#263238"/>
<path d="M84.0764 149.771L70.7676 174.503C70.7676 174.503 40.7804 166.804 38.1942 153.598C35.6079 140.392 69.9653 110.034 80.5651 102.858C91.1649 95.6816 97.6306 94.718 89.2677 111.062C80.9049 127.407 67.9643 144.219 69.0214 145.063C69.9181 145.77 84.0764 149.771 84.0764 149.771Z" fill="#3B9549"/>
<path d="M62.9708 131.747C62.8828 132.356 62.8828 132.974 62.9708 133.583C63.0498 134.2 63.2215 134.803 63.4806 135.372C63.5686 134.763 63.5686 134.146 63.4806 133.537C63.3928 132.921 63.2214 132.319 62.9708 131.747Z" fill="white"/>
<path d="M66.7655 162.289C66.6162 163.537 66.8016 164.801 67.3035 165.959C67.3916 165.351 67.3916 164.733 67.3035 164.124C67.2201 163.489 67.0387 162.871 66.7655 162.289Z" fill="white"/>
<path d="M51.2858 147.403C51.1977 148.012 51.1977 148.63 51.2858 149.239C51.3674 149.854 51.5424 150.454 51.8049 151.019C51.8977 150.411 51.8977 149.792 51.8049 149.184C51.7221 148.569 51.5472 147.969 51.2858 147.403Z" fill="white"/>
<path d="M82.1602 123.589L82.1036 123.681C82.0989 123.62 82.0989 123.558 82.1036 123.497C82.1268 123.525 82.1458 123.556 82.1602 123.589Z" fill="white"/>
<path d="M74.9675 107.336C74.8157 108.585 75.0011 109.85 75.5055 111.007C75.5936 110.398 75.5936 109.781 75.5055 109.172C75.4244 108.537 75.243 107.918 74.9675 107.336Z" fill="white"/>
<path d="M79.8569 150.725C79.6052 150.157 79.4338 149.558 79.3472 148.945C79.3472 148.762 79.3283 148.578 79.2905 148.395L79.772 148.532C79.772 148.642 79.8192 148.762 79.838 148.872C79.934 149.486 79.9404 150.11 79.8569 150.725Z" fill="white"/>
<path d="M81.7256 102.16C82.3517 102.247 82.9872 102.247 83.6133 102.16C84.263 102.08 84.8983 101.914 85.5011 101.665C84.218 101.508 82.915 101.685 81.7256 102.179V102.16Z" fill="white"/>
<path d="M50.5117 133.473C51.1379 133.558 51.7733 133.558 52.3995 133.473C53.0319 133.397 53.6491 133.23 54.2307 132.977C53.6045 132.891 52.969 132.891 52.3429 132.977C51.7123 133.061 51.0963 133.228 50.5117 133.473Z" fill="white"/>
<path d="M63.707 149.184C64.3331 149.27 64.9687 149.27 65.5948 149.184C66.2302 149.108 66.8505 148.941 67.4354 148.688C66.8092 148.603 66.1738 148.603 65.5476 148.688C64.9138 148.772 64.2946 148.938 63.707 149.184Z" fill="white"/>
<path d="M55.8729 167.244C56.499 167.331 57.1345 167.331 57.7607 167.244C58.3961 167.169 59.0164 167.002 59.6013 166.749C58.3174 166.601 57.0161 166.781 55.8257 167.272L55.8729 167.244Z" fill="white"/>
<path d="M41.5542 154.69C42.1804 154.776 42.8158 154.776 43.442 154.69C44.0744 154.614 44.6916 154.447 45.2731 154.194C43.9892 154.047 42.6879 154.227 41.4976 154.717L41.5542 154.69Z" fill="white"/>
<path d="M69.2479 117.587C69.874 117.673 70.5096 117.673 71.1357 117.587C71.7711 117.511 72.3914 117.344 72.9763 117.092C71.6924 116.944 70.3911 117.124 69.2007 117.615L69.2479 117.587Z" fill="white"/>
<path d="M91.8252 104.299C91.3143 104.677 90.8628 105.125 90.4849 105.629C90.0937 106.119 89.776 106.659 89.541 107.235C90.0491 106.861 90.4976 106.416 90.8719 105.914C91.2662 105.422 91.5871 104.878 91.8252 104.299Z" fill="white"/>
<path d="M72.9852 125.663C72.4768 126.04 72.0283 126.489 71.6543 126.993C71.2617 127.482 70.9437 128.023 70.7104 128.6C71.2207 128.228 71.6696 127.782 72.0413 127.278C72.4357 126.787 72.7537 126.243 72.9852 125.663Z" fill="white"/>
<path d="M72.9852 154.974C72.4768 155.352 72.0283 155.8 71.6543 156.305C71.2617 156.793 70.9437 157.334 70.7104 157.911C71.2207 157.539 71.6696 157.093 72.0413 156.59C72.4357 156.099 72.7537 155.555 72.9852 154.974Z" fill="white"/>
<path d="M53.3431 158.93C52.3364 159.701 51.5526 160.713 51.0684 161.866C51.579 161.491 52.0278 161.043 52.3992 160.536C52.7919 160.048 53.1098 159.507 53.3431 158.93Z" fill="white"/>
<path d="M58.1381 140.181C57.6344 140.56 57.1867 141.005 56.8072 141.503C56.4144 141.994 56.0965 142.538 55.8633 143.118C56.3691 142.741 56.8172 142.296 57.1942 141.796C57.5855 141.304 57.9032 140.76 58.1381 140.181Z" fill="white"/>
<path d="M71.8434 170.401C70.8411 171.174 70.0609 172.186 69.5781 173.338C70.5858 172.57 71.3672 171.557 71.8434 170.401Z" fill="white"/>
<path d="M71.7869 139.74L71.5698 140.089C71.3621 139.97 71.1639 139.832 70.9657 139.695C70.4518 139.328 69.9941 138.893 69.6064 138.401C70.1979 138.631 70.7537 138.94 71.2583 139.318C71.4376 139.456 71.6264 139.594 71.7869 139.74Z" fill="white"/>
<path d="M45.8397 144.219C45.4496 143.729 44.9922 143.294 44.4805 142.925C43.974 142.545 43.4148 142.236 42.8193 142.007C43.207 142.499 43.6646 142.935 44.1785 143.301C44.685 143.682 45.2443 143.991 45.8397 144.219Z" fill="white"/>
<path d="M62.1874 158.067C61.7998 157.575 61.3421 157.14 60.8282 156.773C60.3217 156.393 59.7624 156.084 59.167 155.855C59.558 156.347 60.0188 156.783 60.5356 157.149C61.0401 157.528 61.596 157.837 62.1874 158.067Z" fill="white"/>
<path d="M85.2751 114.715C84.8839 114.212 84.4197 113.767 83.8971 113.393C83.3926 113.01 82.8329 112.7 82.2358 112.475C82.6209 112.969 83.0789 113.405 83.595 113.769C84.1049 114.162 84.6709 114.48 85.2751 114.715Z" fill="white"/>
<path d="M62.8764 124.901C62.0812 123.927 61.0409 123.168 59.856 122.699C60.2436 123.191 60.7013 123.626 61.2152 123.993C61.7223 124.37 62.2815 124.676 62.8764 124.901Z" fill="white"/>
<path d="M66.5199 171.071C67.1523 170.254 71.749 162.298 72.7118 160.545C73.6746 158.792 77.6767 151.68 78.5073 149.798C78.5112 149.783 78.5101 149.767 78.504 149.753C78.498 149.738 78.4873 149.726 78.4736 149.718C78.46 149.71 78.4439 149.706 78.4279 149.707C78.4119 149.709 78.3967 149.715 78.3846 149.725C77.2047 151.423 73.146 158.59 72.1266 160.352C71.1072 162.114 66.7465 170.08 66.3878 171.016C66.3595 171.098 66.4727 171.126 66.5199 171.071Z" fill="#263238"/>
<path d="M84.2362 149.688L83.6133 150.698C83.5283 150.808 83.6133 150.698 83.6133 150.698C83.6982 150.588 84.038 149.835 84.038 149.835C79.9793 148.918 75.9395 147.936 71.9469 146.733C71.4466 146.577 70.9464 146.421 70.4461 146.238C69.9095 146.062 69.3962 145.825 68.917 145.531C68.8765 145.501 68.8387 145.467 68.8038 145.43C68.7443 145.362 68.6965 145.284 68.6622 145.201C68.6269 145.059 68.6269 144.911 68.6622 144.77C68.7094 144.641 68.766 144.494 68.8226 144.375C68.8793 144.256 69.0492 143.898 69.1625 143.668C69.3984 143.209 69.6533 142.751 69.8987 142.31C70.8992 140.475 71.9375 138.749 73.004 136.997C75.1655 133.509 77.3176 130.022 79.5546 126.599C81.6689 123.35 83.8681 119.68 86.0863 116.504C86.2184 116.312 86.5582 116.137 86.1523 116.835C84.1135 120.386 82.273 123.451 80.1681 126.929L73.8063 137.428C72.7492 139.181 71.6732 140.915 70.6632 142.686C70.4084 143.127 70.1535 143.604 69.9176 144.017C69.7948 144.237 69.691 144.458 69.5777 144.678L69.4834 144.926L69.4173 144.88C69.4229 144.901 69.4229 144.923 69.4173 144.944C69.4173 144.944 69.4173 145.026 69.4173 144.999V144.935C69.811 145.152 70.2212 145.339 70.6443 145.495L72.0979 146.018C74.0518 146.706 76.0433 147.321 78.0444 147.917L84.2362 149.688Z" fill="#263238"/>
<path d="M69.4834 144.935V144.999C69.4834 144.999 69.4834 144.953 69.4834 144.944C69.489 144.923 69.489 144.901 69.4834 144.88V144.935Z" fill="#263238"/>
<path d="M85.5299 121.102C85.8131 120.891 85.7847 121.102 85.6526 121.221C84.9258 122.139 83.812 123.102 83.0003 123.91C82.0487 124.87 81.0334 125.768 79.9609 126.599C80.7979 125.541 81.7027 124.536 82.6699 123.589C83.5622 122.696 84.5179 121.865 85.5299 121.102Z" fill="#263238"/>
<path d="M101.831 106.639C98.5836 107.557 92.7315 102.968 90.3246 99.0863C90.1547 98.8201 90.4473 95.9477 90.6267 92.4421C90.7305 90.3222 90.7966 87.9453 90.6927 85.7795C90.6927 85.339 104.851 88.4501 104.851 88.4501C104.184 91.1978 103.867 94.0149 103.907 96.8379C103.923 97.147 103.967 97.4541 104.039 97.7556C104.039 97.7556 104.039 97.8474 104.039 97.9024C104.417 99.5451 104.964 105.767 101.831 106.639Z" fill="#EB9481"/>
<path d="M91.561 85.7979C92.3822 89.4687 95.1572 98.1779 102.623 98.0035C103.102 97.9982 103.579 97.9521 104.049 97.8658C104.055 97.8171 104.055 97.7678 104.049 97.719C103.979 97.4168 103.932 97.1101 103.907 96.8013C103.87 93.9784 104.187 91.1616 104.851 88.4134C104.851 88.4134 94.6192 86.2016 91.561 85.7979Z" fill="#263238"/>
<path d="M108.126 64.103C108.126 64.103 112.675 65.9385 113.516 70.4169C114.356 74.8954 113.308 79.5941 112.911 79.8419C112.515 80.0897 108.126 64.103 108.126 64.103Z" fill="#263238"/>
<path d="M88.9938 69.7745C87.6724 74.6475 90.8816 88.4773 94.4778 91.4507C99.773 95.7639 108.155 95.8832 111.855 89.7621C115.441 83.8337 110.996 65.9018 106.947 63.2038C100.981 59.2485 90.9477 62.5705 88.9938 69.7745Z" fill="#EB9481"/>
<path d="M103.558 78.8782C103.558 78.8782 103.492 78.9424 103.501 78.9791C103.747 79.8969 103.86 81.0074 103.058 81.4938C103.058 81.4938 103.058 81.5581 103.058 81.5489C104.105 81.1818 103.935 79.7225 103.558 78.8782Z" fill="#263238"/>
<path d="M102.482 78.0891C100.915 78.3001 101.472 81.3378 102.925 81.1359C104.379 80.934 103.803 77.9147 102.482 78.0891Z" fill="#263238"/>
<path d="M108.976 77.979C108.976 77.979 109.061 77.979 109.061 78.0524C109.202 78.9701 109.533 80.053 110.458 80.2182V80.2733C109.382 80.3558 108.948 78.8967 108.976 77.979Z" fill="#263238"/>
<path d="M109.655 76.8502C111.194 76.4647 111.864 79.4747 110.448 79.8326C109.032 80.1905 108.372 77.1714 109.655 76.8502Z" fill="#263238"/>
<path d="M100.613 75.9325C101.03 75.8182 101.44 75.6804 101.84 75.5195C102.295 75.4318 102.707 75.1993 103.01 74.8587C103.082 74.7336 103.111 74.5895 103.092 74.4474C103.073 74.3054 103.008 74.1729 102.907 74.0694C102.668 73.8975 102.386 73.7914 102.09 73.7623C101.794 73.7332 101.496 73.7823 101.226 73.9042C100.643 74.0614 100.142 74.4247 99.8201 74.9229C99.755 75.041 99.7262 75.1748 99.7371 75.3083C99.7481 75.4419 99.7985 75.5695 99.8821 75.676C99.9657 75.7825 100.079 75.8633 100.209 75.9088C100.338 75.9543 100.479 75.9625 100.613 75.9325Z" fill="#263238"/>
<path d="M110.684 74.3906C110.252 74.3798 109.82 74.3461 109.391 74.2897C108.929 74.3165 108.471 74.1938 108.089 73.941C107.984 73.839 107.917 73.7063 107.898 73.5636C107.88 73.4208 107.91 73.276 107.985 73.1518C108.171 72.9275 108.415 72.7557 108.692 72.654C108.969 72.5524 109.269 72.5246 109.561 72.5736C110.168 72.5881 110.748 72.8165 111.194 73.216C111.289 73.3144 111.353 73.4375 111.377 73.5703C111.402 73.7032 111.386 73.8401 111.332 73.9644C111.278 74.0888 111.188 74.1952 111.073 74.2708C110.958 74.3465 110.823 74.3881 110.684 74.3906Z" fill="#263238"/>
<path d="M103.529 87.8901C103.784 88.1323 104.118 88.2787 104.473 88.3032C104.831 88.2296 105.171 88.0894 105.474 87.8901C105.474 87.8901 105.54 87.8901 105.521 87.8901C105.417 88.0992 105.257 88.2771 105.058 88.4047C104.858 88.5324 104.627 88.6052 104.388 88.6152C104.176 88.6046 103.972 88.5313 103.803 88.405C103.634 88.2788 103.509 88.1056 103.444 87.9085C103.444 87.9085 103.492 87.8626 103.529 87.8901Z" fill="#263238"/>
<path d="M104.04 84.9443C104.351 85.2752 104.73 85.5392 105.153 85.7194C105.576 85.8995 106.032 85.9919 106.494 85.9905C106.895 85.9966 107.296 85.9471 107.683 85.8436L107.91 85.7794L108.117 85.7151C108.166 85.6943 108.206 85.6592 108.234 85.6148C108.261 85.5703 108.273 85.5188 108.268 85.4674C108.271 85.4368 108.271 85.4061 108.268 85.3756V85.293C108.164 84.568 107.891 83.4576 107.891 83.4576C108.183 83.5494 109.684 83.9164 109.59 83.5402C108.912 80.2788 107.893 77.0932 106.55 74.0328C106.538 74.0174 106.522 74.006 106.503 74.0003C106.484 73.9945 106.464 73.9947 106.445 74.0008C106.426 74.0069 106.41 74.0186 106.398 74.0342C106.387 74.0498 106.38 74.0686 106.38 74.0879C106.994 77.0888 108.136 79.9703 108.806 82.9804C108.271 82.8399 107.718 82.775 107.164 82.7877C107.069 82.8336 107.73 84.88 107.749 85.2104C107.151 85.3746 106.525 85.4194 105.908 85.3421C105.292 85.2648 104.698 85.0671 104.162 84.7607C104.03 84.7607 103.964 84.8341 104.04 84.9443Z" fill="#263238"/>
<path d="M107.182 85.5039C106.869 86.0926 106.404 86.5922 105.833 86.9541C105.514 87.1394 105.146 87.2259 104.775 87.2019C103.973 87.1376 103.832 86.4493 103.832 85.8343C103.854 85.5075 103.914 85.1843 104.011 84.8706C104.97 85.4094 106.083 85.6315 107.182 85.5039Z" fill="#263238"/>
<path d="M105.833 86.9541C105.514 87.1394 105.146 87.2259 104.775 87.2019C103.973 87.1377 103.832 86.4494 103.832 85.8345C104.245 85.7795 104.666 85.8596 105.029 86.0622C105.391 86.2648 105.673 86.5785 105.833 86.9541Z" fill="#FF98B9"/>
<path d="M90.8629 82.8887C92.543 83.1089 93.5813 78.1441 93.7889 76.2719C93.9777 74.62 93.6473 69.5176 93.6662 69.1688C93.6851 68.8201 101.378 72.4726 105.2 70.6831C109.023 68.8935 111.109 64.9474 110.864 63.3414C110.618 61.7354 104.936 58.349 100.575 58.8354C96.2147 59.3218 91.297 65.599 91.297 65.599C91.8652 64.7193 92.3637 63.7989 92.7884 62.8458C92.6846 62.6623 90.0794 64.204 89.9001 66.2138C89.9001 66.2138 90.0322 63.6993 89.8151 63.6901C89.5981 63.6809 87.7858 66.1129 88.5409 67.5996C88.5409 67.5996 86.3983 70.1233 86.5682 72.4726C86.7381 74.822 88.8996 82.6317 90.8629 82.8887Z" fill="#263238"/>
<path d="M107.909 69.3983C106.831 70.2208 105.627 70.8742 104.341 71.3348C102.883 71.6972 101.354 71.6972 99.8955 71.3348C98.425 71.0403 97.015 70.5099 95.7235 69.7654C94.572 69.123 93.5148 68.2971 92.3255 67.7556C92.0235 67.6179 91.7781 68.0493 91.9858 68.2604C94.198 70.4244 97.0668 71.8399 100.169 72.2984C101.611 72.5127 103.085 72.3589 104.447 71.8521C105.808 71.3453 107.011 70.5029 107.937 69.4075C107.937 69.4075 107.928 69.3892 107.909 69.3983Z" fill="#263238"/>
<path d="M92.4953 81.0074C92.4953 81.0074 88.9935 76.6942 86.9642 77.9331C84.9348 79.172 87.757 85.5593 90.2678 86.3118C90.5846 86.4292 90.9225 86.4832 91.2613 86.4706C91.6 86.458 91.9327 86.3791 92.2394 86.2386C92.5461 86.0981 92.8204 85.8989 93.046 85.6528C93.2717 85.4068 93.4439 85.1191 93.5525 84.8068L92.4953 81.0074Z" fill="#EB9481"/>
<path d="M87.814 79.741C87.814 79.741 87.814 79.796 87.814 79.8052C89.5885 80.3925 90.589 81.8976 91.3252 83.476C91.2143 83.3134 91.0685 83.1761 90.8978 83.0736C90.727 82.9711 90.5355 82.9058 90.3363 82.8823C90.1371 82.8587 89.935 82.8774 89.744 82.9372C89.553 82.9969 89.3775 83.0962 89.2298 83.2282C89.2298 83.2282 89.2298 83.3292 89.2864 83.3108C89.5849 83.2008 89.9112 83.1831 90.2204 83.2603C90.5296 83.3375 90.8067 83.5058 91.0137 83.7421C91.3564 84.1379 91.6539 84.5687 91.901 85.0269C91.9954 85.1737 92.2691 85.082 92.203 84.9076C92.0898 82.7235 90.1926 79.8236 87.814 79.741Z" fill="#263238"/>
<path d="M88.6162 100.105C90.1629 101.937 91.8141 103.684 93.5621 105.336C95.1659 106.954 97.2655 108.023 99.5464 108.383C101.765 108.576 103.983 108.135 104.794 105.501C105.37 103.234 105.425 100.871 104.955 98.5814C104.95 98.569 104.949 98.5557 104.951 98.5426C104.953 98.5296 104.958 98.5172 104.966 98.5064C104.974 98.4957 104.984 98.4869 104.996 98.4809C105.008 98.4748 105.022 98.4717 105.035 98.4717C105.049 98.4717 105.062 98.4748 105.074 98.4809C105.086 98.4869 105.096 98.4957 105.104 98.5064C105.112 98.5172 105.117 98.5296 105.119 98.5426C105.121 98.5557 105.12 98.569 105.115 98.5814C105.625 102.023 106.154 107.364 102.935 108.557C99.3293 109.897 95.7897 108.089 93.2507 105.666C91.4734 104.006 89.8906 102.159 88.5312 100.16C88.5596 100.114 88.6162 100.068 88.6162 100.105Z" fill="#263238"/>
</svg>
