<svg width="60" height="60" viewBox="0 0 60 60" fill="none" xmlns="http://www.w3.org/2000/svg">
<circle cx="30" cy="30" r="30" fill="#00BF69"/>
<g clip-path="url(#clip0_83_514)">
<path d="M30 15C21.7157 15 15 21.7157 15 30C15 38.2843 21.7157 45 30 45C38.2843 45 45 38.2843 45 30C45 21.7157 38.2843 15 30 15ZM29.491 20.5444H30.5091V23.5455H29.491V20.5444ZM25.3272 21.4453L27.0484 23.9026L26.2134 24.4885L24.4922 22.0312L25.3272 21.4453ZM34.6728 21.4453L35.5078 22.0312L33.7866 24.4885L32.9517 23.9026L34.6728 21.4453ZM30 24.3659C32.4939 24.3659 34.5154 25.8796 34.5154 27.7478L31.9501 35.517H28.0499L25.4846 27.7478C25.4846 25.8795 27.5063 24.3659 30 24.3659ZM21.8902 25.2667L24.7101 26.294L24.3604 27.2516L21.5424 26.2244L21.8902 25.2667ZM38.1098 25.2667L38.4577 26.2244L35.6378 27.2516L35.2899 26.294L38.1098 25.2667ZM24.5746 29.6484L24.8383 30.6335L21.9397 31.4099L21.676 30.4248L24.5746 29.6484ZM35.4254 29.6484L38.324 30.4248L38.0603 31.4099L35.1617 30.6335L35.4254 29.6484ZM27.9932 36.0846H32.0068V37.4341H27.9932V36.0846ZM27.9932 38.1061H32.0068V39.4555H27.9932V38.1061Z" fill="black"/>
</g>
<defs>
<clipPath id="clip0_83_514">
<rect width="30" height="30" fill="white" transform="translate(15 15)"/>
</clipPath>
</defs>
</svg>
