<svg width="60" height="60" viewBox="0 0 60 60" fill="none" xmlns="http://www.w3.org/2000/svg">
<circle cx="30" cy="30" r="30" fill="#00BF69"/>
<path fill-rule="evenodd" clip-rule="evenodd" d="M45 30C45 37.2488 38.2838 43.125 30 43.125C28.5143 43.127 27.0349 42.9341 25.5994 42.5513C24.5044 43.1063 21.99 44.1713 17.76 44.865C17.385 44.925 17.1 44.535 17.2481 44.1863C17.9119 42.6187 18.5119 40.53 18.6919 38.625C16.395 36.3188 15 33.3 15 30C15 22.7513 21.7162 16.875 30 16.875C38.2838 16.875 45 22.7513 45 30ZM24.375 30C24.375 30.4973 24.1775 30.9742 23.8258 31.3258C23.4742 31.6775 22.9973 31.875 22.5 31.875C22.0027 31.875 21.5258 31.6775 21.1742 31.3258C20.8225 30.9742 20.625 30.4973 20.625 30C20.625 29.5027 20.8225 29.0258 21.1742 28.6742C21.5258 28.3225 22.0027 28.125 22.5 28.125C22.9973 28.125 23.4742 28.3225 23.8258 28.6742C24.1775 29.0258 24.375 29.5027 24.375 30ZM31.875 30C31.875 30.4973 31.6775 30.9742 31.3258 31.3258C30.9742 31.6775 30.4973 31.875 30 31.875C29.5027 31.875 29.0258 31.6775 28.6742 31.3258C28.3225 30.9742 28.125 30.4973 28.125 30C28.125 29.5027 28.3225 29.0258 28.6742 28.6742C29.0258 28.3225 29.5027 28.125 30 28.125C30.4973 28.125 30.9742 28.3225 31.3258 28.6742C31.6775 29.0258 31.875 29.5027 31.875 30ZM37.5 31.875C37.9973 31.875 38.4742 31.6775 38.8258 31.3258C39.1775 30.9742 39.375 30.4973 39.375 30C39.375 29.5027 39.1775 29.0258 38.8258 28.6742C38.4742 28.3225 37.9973 28.125 37.5 28.125C37.0027 28.125 36.5258 28.3225 36.1742 28.6742C35.8225 29.0258 35.625 29.5027 35.625 30C35.625 30.4973 35.8225 30.9742 36.1742 31.3258C36.5258 31.6775 37.0027 31.875 37.5 31.875Z" fill="black"/>
</svg>
