<svg width="296" height="216" viewBox="0 0 296 216" fill="none" xmlns="http://www.w3.org/2000/svg">
<path d="M295.955 189.159H0V189.302H295.955V189.159Z" fill="#EBEBEB"/>
<path d="M140.283 163.491H25.9906C25.0952 163.49 24.2371 163.143 23.6045 162.527C22.972 161.911 22.6167 161.076 22.6167 160.205V3.99874C22.6245 3.13321 22.9832 2.30562 23.6149 1.69574C24.2466 1.08585 25.1003 0.742923 25.9906 0.74144H140.283C141.179 0.74144 142.039 1.08765 142.672 1.70391C143.306 2.32017 143.662 3.15599 143.662 4.02752V160.205C143.662 161.077 143.306 161.913 142.672 162.529C142.039 163.145 141.179 163.491 140.283 163.491ZM25.9906 0.856539C25.1345 0.858064 24.314 1.18979 23.7092 1.7789C23.1044 2.36801 22.7647 3.16637 22.7647 3.99874V160.205C22.7647 161.038 23.1044 161.836 23.7092 162.425C24.314 163.014 25.1345 163.346 25.9906 163.348H140.283C141.139 163.346 141.96 163.015 142.566 162.426C143.172 161.837 143.513 161.038 143.514 160.205V3.99874C143.513 3.16584 143.172 2.3675 142.566 1.77855C141.96 1.1896 141.139 0.858061 140.283 0.856539H25.9906Z" fill="#EBEBEB"/>
<path d="M268.319 163.491H154.021C153.125 163.49 152.266 163.143 151.633 162.527C150.999 161.911 150.643 161.076 150.641 160.205V3.99874C150.65 3.13269 151.01 2.3051 151.643 1.69538C152.276 1.08565 153.13 0.742906 154.021 0.74144H268.319C269.208 0.744435 270.06 1.08803 270.691 1.69776C271.321 2.30748 271.679 3.13421 271.687 3.99874V160.205C271.687 161.075 271.332 161.909 270.701 162.525C270.07 163.141 269.213 163.488 268.319 163.491ZM154.021 0.856539C153.164 0.858061 152.343 1.1896 151.737 1.77855C151.132 2.3675 150.791 3.16584 150.789 3.99874V160.205C150.791 161.038 151.132 161.837 151.737 162.426C152.343 163.015 153.164 163.346 154.021 163.348H268.319C269.175 163.346 269.997 163.015 270.602 162.426C271.208 161.837 271.549 161.038 271.551 160.205V3.99874C271.549 3.16584 271.208 2.3675 270.602 1.77855C269.997 1.1896 269.175 0.858061 268.319 0.856539H154.021Z" fill="#EBEBEB"/>
<path d="M118.643 194.637H103.253V194.781H118.643V194.637Z" fill="#EBEBEB"/>
<path d="M63.0741 193.078H31.0518V193.222H63.0741V193.078Z" fill="#EBEBEB"/>
<path d="M102.661 199.984H87.082V200.128H102.661V199.984Z" fill="#EBEBEB"/>
<path d="M175.833 199.017H152.849V199.16H175.833V199.017Z" fill="#EBEBEB"/>
<path d="M187.429 199.017H181.101V199.16H187.429V199.017Z" fill="#EBEBEB"/>
<path d="M266.306 196.588H234.012V196.732H266.306V196.588Z" fill="#EBEBEB"/>
<path d="M209.074 152.62H245.406C252.343 152.62 258.008 148.431 258.15 143.199L259.505 110.396C259.612 106.471 255.427 103.249 250.224 103.249H227.447C222.712 103.249 218.758 105.919 218.225 109.458L209.074 152.62Z" fill="#E6E6E6"/>
<path d="M192.311 147.366H228.891V152.62H189.796C189.413 152.619 189.047 152.47 188.776 152.207C188.506 151.944 188.353 151.588 188.352 151.216C188.352 150.195 188.769 149.216 189.511 148.494C190.254 147.772 191.261 147.366 192.311 147.366Z" fill="#E6E6E6"/>
<path d="M225.24 189.159H223.582L219.687 174.984L218.859 171.98L213.68 153.248H193.922L184.037 189.176H182.385L192.448 152.511C192.51 152.358 192.621 152.227 192.765 152.139C192.909 152.052 193.077 152.01 193.247 152.022H214.343C214.511 152.011 214.679 152.052 214.822 152.14C214.964 152.228 215.074 152.358 215.136 152.511L219.67 168.982L220.493 171.997L225.24 189.159Z" fill="#E6E6E6"/>
<path d="M256.984 189.159H255.326L245.441 153.248H225.672L220.51 171.997L219.687 175.001L215.787 189.176H214.129L218.865 171.997L219.693 168.982L224.221 152.511C224.283 152.358 224.393 152.228 224.536 152.14C224.678 152.052 224.846 152.011 225.015 152.022H246.11C246.279 152.011 246.447 152.052 246.589 152.14C246.732 152.228 246.842 152.358 246.903 152.511L256.984 189.159Z" fill="#E6E6E6"/>
<path d="M61.819 132.576H43.2271V185.786H61.819V132.576Z" fill="#F0F0F0"/>
<path d="M128.652 185.786H46.7964V189.158H128.652V185.786Z" fill="#F0F0F0"/>
<path d="M61.8188 185.786H132.221V132.576H61.8188V185.786Z" fill="#F5F5F5"/>
<path d="M69.129 156.58H124.911V139.131H69.129V156.58Z" fill="#F0F0F0"/>
<path d="M69.129 179.237H124.911V161.788H69.129V179.237Z" fill="#F0F0F0"/>
<path d="M105.259 146.658H88.7805C88.2607 146.658 87.8394 147.068 87.8394 147.573V148.137C87.8394 148.643 88.2607 149.052 88.7805 149.052H105.259C105.779 149.052 106.2 148.643 106.2 148.137V147.573C106.2 147.068 105.779 146.658 105.259 146.658Z" fill="#F5F5F5"/>
<path d="M105.259 169.315H88.7805C88.2607 169.315 87.8394 169.725 87.8394 170.231V170.795C87.8394 171.3 88.2607 171.71 88.7805 171.71H105.259C105.779 171.71 106.2 171.3 106.2 170.795V170.231C106.2 169.725 105.779 169.315 105.259 169.315Z" fill="#F5F5F5"/>
<path d="M124.301 121.722H110.687C110.805 121.4 110.924 121.054 111.042 120.686C111.048 120.667 111.048 120.647 111.042 120.629C111.113 120.406 111.184 120.176 111.255 119.938C111.516 120.24 111.837 120.487 112.2 120.663C112.562 120.839 112.958 120.941 113.363 120.962H113.593C113.979 120.928 114.341 120.77 114.623 120.512C114.906 120.255 115.091 119.913 115.15 119.541C115.154 119.497 115.143 119.452 115.12 119.414C115.097 119.376 115.062 119.346 115.02 119.328C114.482 119.032 113.878 118.866 113.261 118.843C112.643 118.82 112.028 118.941 111.468 119.196C111.61 118.649 111.747 118.073 111.871 117.469C111.88 117.443 111.88 117.415 111.871 117.389C111.906 117.222 111.942 117.049 111.972 116.876C112.741 117.624 113.422 117.987 114.049 117.987C114.813 117.987 115.464 117.412 116.044 116.318C116.061 116.273 116.061 116.223 116.044 116.177C116.027 116.132 115.993 116.094 115.949 116.071C114.452 115.127 112.812 115.771 112.09 116.151C112.155 115.708 112.214 115.253 112.256 114.793C112.291 114.407 112.315 114.022 112.333 113.642C112.55 113.905 112.818 114.124 113.123 114.285C113.428 114.446 113.763 114.546 114.108 114.58H114.244C115.079 114.505 115.718 113.7 115.961 112.439C115.967 112.386 115.952 112.333 115.92 112.29C115.886 112.245 115.838 112.212 115.783 112.198C115.197 112.033 114.579 112.002 113.979 112.108C113.378 112.214 112.811 112.453 112.321 112.808C112.321 112.439 112.321 112.071 112.273 111.703C112.41 111.727 112.549 111.74 112.688 111.743C113.129 111.72 113.559 111.593 113.939 111.374C114.319 111.154 114.639 110.848 114.872 110.483C114.886 110.458 114.894 110.43 114.894 110.402C114.894 110.374 114.886 110.346 114.872 110.321C114.859 110.294 114.84 110.27 114.816 110.25C114.793 110.23 114.765 110.215 114.736 110.206C114.411 110.049 114.057 109.96 113.695 109.945C113.332 109.93 112.971 109.99 112.634 110.12C112.321 110.299 112.091 110.587 111.989 110.926C111.555 110.147 110.946 109.473 110.207 108.954C109.468 108.434 108.619 108.084 107.722 107.927C107.698 107.921 107.673 107.921 107.649 107.927C107.625 107.933 107.603 107.945 107.585 107.962C107.567 107.978 107.553 107.999 107.546 108.022C107.538 108.046 107.538 108.071 107.544 108.094C107.739 109.32 108.1 110.816 109.201 111.547C109.631 111.822 110.137 111.965 110.652 111.956C111.078 111.948 111.5 111.88 111.906 111.754C111.969 112.626 111.969 113.501 111.906 114.373C110.741 113.167 109.263 112.288 107.627 111.829C107.605 111.822 107.583 111.82 107.56 111.823C107.538 111.826 107.516 111.834 107.497 111.846C107.478 111.858 107.463 111.874 107.451 111.893C107.44 111.912 107.433 111.934 107.432 111.956C107.38 112.414 107.44 112.877 107.608 113.309C107.776 113.74 108.046 114.126 108.396 114.436C109.04 114.925 109.842 115.174 110.657 115.138C111.055 115.135 111.452 115.094 111.841 115.017C111.764 115.737 111.658 116.445 111.528 117.118C110.853 116.635 108.923 115.392 107.224 115.909C107.202 115.917 107.181 115.93 107.165 115.947C107.148 115.964 107.136 115.985 107.13 116.007C107.11 116.053 107.11 116.105 107.13 116.151C107.876 117.302 108.574 117.964 109.326 118.188C109.518 118.245 109.717 118.274 109.918 118.275C110.424 118.257 110.917 118.108 111.344 117.843C111.143 118.741 110.918 119.57 110.687 120.318C110.167 119.874 109.545 119.558 108.874 119.395C108.203 119.232 107.501 119.226 106.828 119.38C106.807 119.384 106.788 119.393 106.771 119.405C106.755 119.417 106.741 119.433 106.731 119.452C106.722 119.47 106.716 119.49 106.716 119.51C106.715 119.531 106.719 119.551 106.727 119.57C106.866 119.958 107.089 120.314 107.381 120.611C107.673 120.909 108.027 121.143 108.42 121.296C108.702 121.407 109.004 121.463 109.308 121.463C109.694 121.461 110.074 121.362 110.409 121.175L110.19 121.797H98.7483C98.4641 120.502 98.1564 119.017 97.9729 117.383C98.4247 117.532 98.8986 117.608 99.3757 117.607C100.471 117.588 101.535 117.249 102.43 116.635C103.939 115.633 104.999 114.062 105.058 112.716C105.062 112.684 105.058 112.652 105.046 112.623C105.035 112.593 105.016 112.567 104.991 112.546C104.967 112.525 104.937 112.51 104.906 112.502C104.874 112.495 104.841 112.495 104.809 112.503C101.323 112.848 98.8548 115.023 97.819 116.117C97.6534 114.556 97.5684 112.989 97.5644 111.421C98.2041 111.846 98.9561 112.084 99.7308 112.105C100.082 112.105 100.431 112.052 100.767 111.95C102.625 111.375 104.318 109.412 105.904 107.346C105.932 107.312 105.953 107.274 105.965 107.232C105.977 107.191 105.981 107.147 105.975 107.104C105.971 107.068 105.956 107.034 105.932 107.007C105.907 106.979 105.875 106.959 105.839 106.949C102.744 106.023 98.843 109.205 97.5822 110.344C97.6158 108.945 97.7305 107.548 97.9255 106.161C98.6154 106.295 99.3172 106.365 100.021 106.368C101.618 106.419 103.186 105.944 104.472 105.021C105.18 104.469 105.755 103.774 106.159 102.984C106.563 102.194 106.785 101.328 106.81 100.446C106.81 100.285 106.692 100.193 106.508 100.239C102.684 101.165 99.4763 103.749 98.1208 104.969C98.1623 104.722 98.2096 104.469 98.2629 104.216C98.2819 104.159 98.2819 104.099 98.2629 104.043C98.2629 102.967 97.9078 102.184 97.1856 101.787C96.3333 101.321 95.0252 101.384 93.3086 101.988C93.2025 102.025 93.1127 102.096 93.0541 102.19C93.0328 102.231 93.0217 102.276 93.0217 102.322C93.0217 102.368 93.0328 102.413 93.0541 102.455C93.4035 103.115 93.9289 103.672 94.5755 104.068C95.2221 104.464 95.9661 104.684 96.7299 104.705C97.0082 104.7 97.2855 104.671 97.5585 104.618C97.4244 105.32 97.3119 106.023 97.2211 106.725C96.3274 106.005 94.2616 104.866 90.9469 105.683C90.8486 105.707 90.7611 105.761 90.6983 105.838C90.6357 105.904 90.6018 105.991 90.6036 106.08C90.7693 108.382 91.7874 109.832 93.279 109.959H93.4921C94.2793 109.959 95.475 109.608 97.0436 108.192C96.9086 109.769 96.8671 111.353 96.9193 112.934C95.6881 112.255 92.7759 111.087 89.8163 112.865C89.7408 112.902 89.6799 112.962 89.6435 113.036C89.607 113.11 89.597 113.194 89.6151 113.274C90.4201 115.299 91.4855 116.284 92.8706 116.284H92.9061C94.0603 116.284 95.3981 115.581 96.9844 114.195C97.0791 115.714 97.2389 117.164 97.4401 118.511C96.2563 117.619 94.6167 117.763 92.3024 118.931C92.1987 118.983 92.1169 119.068 92.0715 119.173C92.0523 119.213 92.046 119.258 92.0534 119.302C92.0608 119.346 92.0815 119.387 92.1129 119.42C93.0381 120.237 94.2317 120.708 95.4809 120.749C96.262 120.752 97.0298 120.553 97.7065 120.174C97.813 120.749 97.9255 121.29 98.0321 121.814H78.3096C78.6884 120.824 79.1028 119.667 79.4934 118.361C79.5114 118.323 79.5234 118.282 79.5289 118.24C79.6789 117.772 79.8269 117.289 79.9729 116.79C81.3343 118.183 82.8969 118.948 84.4122 118.948C84.5744 118.947 84.7364 118.938 84.8976 118.919C85.727 118.852 86.5072 118.509 87.1075 117.948C87.7077 117.388 88.0915 116.643 88.1945 115.84C88.2003 115.748 88.1774 115.656 88.1289 115.576C88.0804 115.496 88.0084 115.432 87.9222 115.392C84.4595 113.711 81.7782 114.471 80.4405 115.11C80.7424 113.959 81.0324 112.75 81.2869 111.49C81.3139 111.438 81.3262 111.381 81.3224 111.323C81.3935 110.966 81.4586 110.609 81.5237 110.247C83.1455 111.812 84.5839 112.583 85.8979 112.583C87.502 112.583 88.8574 111.432 90.0945 109.067C90.1293 108.972 90.1288 108.868 90.0931 108.774C90.0574 108.679 89.9888 108.6 89.8992 108.549C86.7384 106.558 83.2935 107.916 81.7723 108.716C81.9143 107.778 82.0327 106.822 82.1215 105.838C82.1215 105.838 82.1215 105.804 82.1215 105.792C82.1925 104.987 82.2399 104.175 82.2695 103.352C83.8617 104.929 85.1639 105.326 86.0636 105.326H86.3537C88.1294 105.154 89.4553 103.467 89.9643 100.809C89.972 100.755 89.9686 100.7 89.9544 100.648C89.9402 100.596 89.9154 100.547 89.8815 100.504C89.8111 100.408 89.7086 100.338 89.5914 100.308C88.3557 99.9614 87.0545 99.8964 85.7888 100.118C84.5231 100.34 83.3269 100.842 82.2932 101.586C82.2932 100.814 82.2577 100.037 82.2044 99.2836C82.4933 99.3368 82.7864 99.3656 83.0804 99.3699C86.0044 99.3699 87.5967 96.8377 87.6677 96.7169C87.6957 96.6654 87.7103 96.6081 87.7103 96.55C87.7103 96.4918 87.6957 96.4345 87.6677 96.3831C87.6065 96.2668 87.5032 96.1766 87.3777 96.1299C85.4954 95.4565 84.0038 95.399 82.9561 95.9572C82.2932 96.3289 81.8066 96.9384 81.6006 97.6549C80.6872 96.0132 79.4061 94.592 77.8519 93.4963C76.2977 92.4006 74.5102 91.6584 72.6214 91.3245C72.5694 91.3134 72.5156 91.3145 72.4642 91.3275C72.4127 91.3405 72.3652 91.3651 72.3254 91.3993C72.2873 91.434 72.2591 91.4777 72.2435 91.5261C72.228 91.5745 72.2256 91.626 72.2366 91.6756C72.645 94.2538 73.4204 97.4305 75.7348 98.9095C76.6377 99.4898 77.701 99.7889 78.7831 99.767C79.6793 99.7511 80.5684 99.6096 81.4231 99.3469C81.5406 101.183 81.5307 103.025 81.3935 104.86C80.0617 103.525 76.7114 100.538 72.3846 99.508C72.3392 99.4927 72.2908 99.4879 72.2432 99.4941C72.1956 99.5002 72.1501 99.5171 72.1104 99.5434C72.0707 99.5697 72.0379 99.6046 72.0146 99.6454C71.9913 99.6863 71.9781 99.7318 71.9762 99.7785C71.8519 101.994 72.5681 103.807 73.9946 104.987C75.3413 106.013 77.0201 106.54 78.7299 106.471C79.575 106.463 80.4174 106.377 81.2455 106.212C81.0916 107.732 80.8607 109.217 80.5885 110.638C79.1738 109.614 75.1015 107.012 71.5322 108.1C71.4842 108.113 71.4405 108.138 71.4052 108.172C71.37 108.207 71.3444 108.249 71.331 108.296C71.3193 108.348 71.3185 108.402 71.3287 108.454C71.3388 108.507 71.3598 108.556 71.3902 108.601C72.9647 111.058 74.4326 112.422 76.0189 112.888C76.427 113.012 76.8522 113.074 77.2797 113.072C78.3437 113.035 79.3781 112.721 80.2747 112.163C79.8604 114.045 79.381 115.806 78.8897 117.377C77.7984 116.44 76.4922 115.771 75.0803 115.425C73.6684 115.08 72.192 115.068 70.7746 115.392C70.7318 115.401 70.6916 115.419 70.6568 115.445C70.6219 115.471 70.5931 115.504 70.5724 115.542C70.5516 115.579 70.5394 115.621 70.5365 115.663C70.5336 115.706 70.5401 115.749 70.5556 115.789C70.848 116.605 71.316 117.351 71.9284 117.977C72.5409 118.603 73.2836 119.095 74.107 119.42C74.7 119.652 75.3325 119.773 75.9716 119.777C76.7878 119.772 77.5881 119.557 78.2919 119.155C77.9604 120.128 77.6407 120.985 77.3448 121.739H64.5181C64.1393 120.64 63.7486 119.391 63.3994 118.027C63.8029 118.154 64.2242 118.22 64.6483 118.223C65.8072 118.191 66.9102 117.732 67.7328 116.937C68.5553 116.143 69.0356 115.074 69.0758 113.947C69.0738 113.919 69.0657 113.892 69.052 113.867C69.0384 113.842 69.0195 113.82 68.9966 113.802C68.9737 113.785 68.9474 113.773 68.9192 113.766C68.891 113.759 68.8617 113.758 68.8331 113.763C67.7152 113.899 66.6359 114.249 65.6568 114.791C64.6778 115.333 63.8182 116.057 63.1271 116.922C62.8252 115.628 62.5352 114.246 62.3813 112.819C62.9724 113.177 63.6505 113.375 64.3464 113.395C64.65 113.395 64.9516 113.348 65.2402 113.256C66.8029 112.773 68.0755 111.041 69.2179 109.228C69.2377 109.198 69.2511 109.164 69.2572 109.128C69.2633 109.092 69.262 109.056 69.2534 109.021C69.2453 108.988 69.2284 108.958 69.2045 108.934C69.1806 108.91 69.1505 108.892 69.1172 108.883C66.3116 108.077 63.2573 110.857 62.2748 111.847C62.1528 110.632 62.0995 109.412 62.1149 108.192C62.7251 108.31 63.3455 108.372 63.9676 108.376C65.3216 108.432 66.6513 108.014 67.7144 107.197C68.2764 106.695 68.7082 106.071 68.9747 105.376C69.2411 104.68 69.3346 103.934 69.2475 103.197C69.2461 103.165 69.2367 103.133 69.2203 103.105C69.2038 103.077 69.1807 103.054 69.1529 103.036C69.125 103.019 69.0933 103.008 69.0603 103.005C69.0274 103.002 68.9941 103.007 68.9633 103.018C65.7197 103.83 63.2041 106.086 62.1505 107.156C62.1505 106.932 62.1505 106.713 62.1919 106.494C62.1979 106.441 62.1831 106.388 62.1505 106.345C62.1391 105.946 62.0247 105.556 61.8178 105.211C61.611 104.866 61.3183 104.577 60.9666 104.371C60.1676 103.962 59.037 104.02 57.5987 104.549C57.5551 104.564 57.5153 104.588 57.4816 104.618C57.448 104.649 57.4213 104.686 57.4033 104.728C57.3831 104.762 57.3724 104.801 57.3724 104.84C57.3724 104.879 57.3831 104.918 57.4033 104.952C57.4625 105.044 58.67 106.92 60.866 106.92C61.1066 106.917 61.3464 106.892 61.5822 106.846C61.5408 107.461 61.5171 108.071 61.5171 108.687C60.7188 108.127 59.7978 107.753 58.8264 107.597C57.855 107.44 56.8594 107.504 55.9176 107.784C55.8382 107.806 55.7692 107.855 55.7223 107.922C55.6979 107.951 55.6801 107.986 55.6699 108.022C55.6597 108.059 55.6574 108.097 55.6631 108.135C56.0597 110.149 57.0955 111.415 58.4333 111.524H58.599C59.2856 111.524 60.2919 111.213 61.523 109.976C61.5782 111.364 61.7165 112.748 61.9374 114.12C60.7891 113.544 58.1314 112.508 55.7164 114.062C55.6538 114.096 55.6057 114.151 55.5808 114.216C55.5558 114.282 55.5557 114.353 55.5803 114.419C56.5155 116.186 57.5513 117.049 58.7588 117.049H58.7943C59.7947 117.049 60.8897 116.433 62.1268 115.225C62.3754 116.554 62.6713 117.82 62.9969 118.994C61.89 118.217 60.4517 118.338 58.5576 119.362C58.515 119.383 58.4773 119.413 58.4467 119.448C58.4162 119.484 58.3935 119.525 58.38 119.57C58.3698 119.608 58.3705 119.649 58.3819 119.688C58.3934 119.726 58.4152 119.761 58.4451 119.788C59.3199 120.487 60.404 120.891 61.5349 120.939C62.1994 120.938 62.8507 120.759 63.4171 120.421C63.5533 120.864 63.6953 121.296 63.8315 121.705H51.4014V124.007H56.3379L59.8124 132.564H115.866L119.341 124.007H124.301V121.722Z" fill="#E6E6E6"/>
<path d="M203.469 8.07349H43.2271V81.4374H45.1389L46.2458 83.2329H58.2616L59.3684 81.4374H203.469V8.07349Z" fill="#E0E0E0"/>
<path d="M204.138 8.07349H43.8901V81.4374H45.802L46.9148 83.2329H58.9247L60.0375 81.4374H204.138V8.07349Z" fill="#E6E6E6"/>
<path d="M200.835 78.2319V11.2844L47.1929 11.2844V78.2319L200.835 78.2319Z" fill="#FAFAFA"/>
<path d="M159.366 78.2319L125.106 11.2844H110.717L144.971 78.2319H159.366Z" fill="white"/>
<path d="M138.087 78.2319L103.827 11.2844H97.4463L131.706 78.2319H138.087Z" fill="white"/>
<path d="M49.3417 82.4961C49.8157 82.4961 50.2 82.1225 50.2 81.6617C50.2 81.2009 49.8157 80.8274 49.3417 80.8274C48.8677 80.8274 48.4834 81.2009 48.4834 81.6617C48.4834 82.1225 48.8677 82.4961 49.3417 82.4961Z" fill="#FAFAFA"/>
<path d="M52.0643 82.4961C52.5383 82.4961 52.9226 82.1225 52.9226 81.6617C52.9226 81.2009 52.5383 80.8274 52.0643 80.8274C51.5903 80.8274 51.2061 81.2009 51.2061 81.6617C51.2061 82.1225 51.5903 82.4961 52.0643 82.4961Z" fill="#F0F0F0"/>
<path d="M147.977 215.148C211.361 215.148 262.743 212.231 262.743 208.634C262.743 205.036 211.361 202.119 147.977 202.119C84.5942 202.119 33.2119 205.036 33.2119 208.634C33.2119 212.231 84.5942 215.148 147.977 215.148Z" fill="#F5F5F5"/>
<path d="M250.449 54.3372H249.857V57.5083H250.449V54.3372Z" fill="#3B9549"/>
<path d="M250.449 42.1599H249.857V51.6211H250.449V42.1599Z" fill="#3B9549"/>
<path d="M241.274 21.6206H150.978C149.095 21.6206 147.288 22.3482 145.956 23.6433C144.624 24.9384 143.875 26.695 143.875 28.5266V57.4452L134.056 66.9927L143.875 76.546V134.798C143.875 136.629 144.624 138.386 145.956 139.681C147.288 140.976 149.095 141.704 150.978 141.704H241.274C243.158 141.704 244.965 140.976 246.297 139.681C247.629 138.386 248.377 136.629 248.377 134.798V28.5266C248.377 26.695 247.629 24.9384 246.297 23.6433C244.965 22.3482 243.158 21.6206 241.274 21.6206Z" fill="#00BF69"/>
<path opacity="0.1" d="M184.445 141.704H161L184.705 21.6206H208.151L184.445 141.704Z" fill="white"/>
<path opacity="0.1" d="M202.41 141.704H193.999L217.699 21.6206H226.11L202.41 141.704Z" fill="white"/>
<path d="M202.782 49.3075C202.782 46.928 201.81 44.6459 200.08 42.9633C198.349 41.2807 196.002 40.3354 193.555 40.3354C191.107 40.3354 188.76 41.2807 187.029 42.9633C185.299 44.6459 184.327 46.928 184.327 49.3075V63.9656L202.782 57.4451V49.3075Z" fill="#263238"/>
<path d="M185.96 71.067L185.102 87.9807L185.007 90.1273C184.952 90.9671 184.814 91.7997 184.593 92.6134C184.19 94.0901 183.658 95.5303 183.001 96.9181C181.753 99.5826 180.261 102.133 178.544 104.538L176.407 103.387C177.502 100.826 178.579 98.2072 179.408 95.606C179.827 94.3519 180.158 93.0713 180.396 91.7732C180.497 91.2029 180.546 90.6253 180.544 90.0467L180.509 87.9404C180.481 85.0745 180.513 82.2143 180.603 79.3598C180.68 76.4824 180.811 73.6624 181.018 70.8022L185.96 71.067Z" fill="#FFB573"/>
<path d="M182.592 65.3295C180.592 65.8244 179.195 73.812 179.195 73.812L184.7 77.4548C184.7 77.4548 189.974 69.3981 188.44 67.2573C186.842 65.0302 185.505 64.6216 182.592 65.3295Z" fill="#263238"/>
<path opacity="0.2" d="M182.77 67.1133L181.237 75.1643L184.327 77.2073L182.77 67.1133Z" fill="black"/>
<path d="M176.389 103.364L175.004 107.421L179.645 105.798C179.645 105.798 180.13 102.811 178.532 101.626L178.082 101.798C177.688 101.902 177.327 102.1 177.032 102.373C176.736 102.646 176.515 102.987 176.389 103.364Z" fill="#FFB573"/>
<path d="M175.697 110.863L179.751 110.091L179.663 105.798L175.022 107.421L175.697 110.863Z" fill="#FFB573"/>
<path d="M182.592 65.3294C182.592 65.3294 180.278 66.1178 184.907 93.7644H204.588C204.256 85.978 204.25 81.1727 208.074 65.1913C205.319 64.6363 202.525 64.2785 199.716 64.1209C196.741 63.9135 193.754 63.9135 190.778 64.1209C186.943 64.4604 182.592 65.3294 182.592 65.3294Z" fill="#263238"/>
<path opacity="0.7" d="M188.381 85.3679H193.259L189.879 76.0161H185.007L188.381 85.3679Z" fill="black"/>
<path d="M188.05 85.3679H192.927L189.547 76.0161H184.67L188.05 85.3679Z" fill="#3B9549"/>
<path d="M198.834 54.3372C198.272 57.1341 197.704 62.2561 199.716 64.1208C199.716 64.1208 198.935 66.958 193.59 66.958C187.712 66.958 190.778 64.1208 190.778 64.1208C193.987 63.3784 193.904 61.0648 193.347 58.8894L198.834 54.3372Z" fill="#FFB573"/>
<path opacity="0.2" d="M196.597 56.196L193.348 58.8664C193.489 59.3712 193.582 59.8874 193.626 60.4087C194.851 60.236 196.532 58.9297 196.662 57.6808C196.733 57.1862 196.711 56.6831 196.597 56.196Z" fill="black"/>
<path d="M199.669 47.3565C200.261 51.995 200.604 53.946 198.668 56.7314C195.756 60.921 189.79 60.6045 187.766 56.2249C185.99 52.2828 185.315 45.3538 189.589 42.695C190.528 42.1045 191.607 41.7574 192.723 41.6868C193.84 41.6162 194.956 41.8243 195.966 42.2915C196.977 42.7587 197.847 43.4693 198.495 44.3558C199.143 45.2424 199.547 46.2753 199.669 47.3565Z" fill="#FFB573"/>
<path d="M187.996 43.8229C187.967 43.9208 195.099 51.3045 200.13 50.7002C201.184 49.1636 200.693 44.3351 198.787 43.3107C196.881 42.2863 194.051 40.8476 192.14 41.1698C190.228 41.4921 187.996 43.8229 187.996 43.8229Z" fill="#263238"/>
<path d="M184.906 93.7644C184.906 93.7644 179.194 109.878 182.012 141.703H198.491C199.675 124.438 199.319 93.7644 199.319 93.7644H184.906Z" fill="white"/>
<path d="M204.588 93.7644H190.353C190.353 93.7644 193.957 125.952 196.272 141.703H211.01C212.762 101.626 204.588 93.7644 204.588 93.7644Z" fill="white"/>
<path d="M193.129 141.703C193.129 141.703 191.714 120.939 193.424 115.311C195.1 123.69 199.936 141.703 199.936 141.703H193.129Z" fill="#F5F5F5"/>
<path d="M192.37 49.9463C192.442 50.3204 192.294 50.66 192.045 50.7061C191.796 50.7521 191.53 50.4816 191.453 50.1305C191.376 49.7794 191.53 49.4168 191.779 49.3707C192.027 49.3247 192.305 49.5722 192.37 49.9463Z" fill="#263238"/>
<path d="M188.032 50.7289C188.103 51.1029 187.955 51.4424 187.707 51.4827C187.458 51.523 187.192 51.264 187.115 50.9073C187.038 50.5505 187.192 50.1938 187.44 50.1477C187.689 50.1017 187.961 50.3549 188.032 50.7289Z" fill="#263238"/>
<path d="M187.565 50.1306L186.588 50.0386C186.588 50.0386 187.198 50.654 187.565 50.1306Z" fill="#263238"/>
<path d="M189.5 51.1604C189.319 52.0736 189.01 52.9584 188.583 53.7905C188.805 53.8906 189.048 53.9424 189.293 53.9424C189.538 53.9424 189.781 53.8906 190.003 53.7905L189.5 51.1604Z" fill="#ED893E"/>
<path d="M192.371 54.8783C192.187 54.9405 191.999 54.9886 191.808 55.0222C191.779 55.0273 191.749 55.0211 191.725 55.0049C191.701 54.9888 191.684 54.964 191.678 54.9359C191.673 54.9069 191.679 54.8771 191.695 54.8525C191.712 54.8279 191.738 54.8104 191.767 54.8035C192.248 54.7291 192.705 54.5448 193.099 54.2657C193.493 53.9866 193.814 53.6206 194.034 53.1978C194.04 53.1845 194.048 53.1726 194.059 53.1625C194.069 53.1525 194.082 53.1445 194.096 53.1392C194.109 53.1338 194.124 53.1312 194.139 53.1314C194.154 53.1315 194.168 53.1345 194.182 53.1402C194.196 53.1459 194.208 53.1541 194.218 53.1644C194.229 53.1747 194.237 53.1869 194.242 53.2002C194.248 53.2136 194.25 53.2279 194.25 53.2423C194.25 53.2567 194.247 53.2709 194.241 53.2841C194.055 53.6581 193.794 53.9919 193.472 54.2657C193.151 54.5396 192.776 54.7479 192.371 54.8783Z" fill="#263238"/>
<path d="M201.753 51.3504C201.59 52.2403 201.07 53.031 200.308 53.5489C199.29 54.228 198.385 53.4396 198.337 52.3058C198.29 51.2871 198.763 49.6987 199.941 49.4742C200.2 49.4297 200.466 49.4485 200.715 49.5291C200.965 49.6097 201.189 49.7494 201.369 49.9357C201.549 50.1219 201.678 50.3488 201.745 50.5958C201.812 50.8429 201.815 51.1022 201.753 51.3504Z" fill="#FFB573"/>
<path d="M193.957 48.7722C193.911 48.7864 193.862 48.7869 193.815 48.7735C193.769 48.7602 193.728 48.7337 193.697 48.6974C193.052 47.8745 191.69 47.9148 191.672 47.9148C191.612 47.9148 191.553 47.8922 191.509 47.8515C191.465 47.8108 191.439 47.7551 191.436 47.6961C191.434 47.6375 191.456 47.5807 191.497 47.5376C191.538 47.4946 191.594 47.4689 191.655 47.4659C191.72 47.4659 193.277 47.4199 194.064 48.4269C194.082 48.4502 194.095 48.4768 194.103 48.5051C194.111 48.5335 194.112 48.5631 194.108 48.592C194.103 48.621 194.093 48.6489 194.077 48.6739C194.062 48.6989 194.041 48.7206 194.016 48.7377L193.957 48.7722Z" fill="#263238"/>
<path d="M186.357 49.0083C186.319 49.0231 186.278 49.0271 186.238 49.02C186.198 49.0129 186.161 48.9948 186.132 48.968C186.11 48.9481 186.092 48.924 186.081 48.8973C186.069 48.8706 186.062 48.8417 186.062 48.8126C186.062 48.7835 186.069 48.7547 186.081 48.7279C186.092 48.7012 186.11 48.6771 186.132 48.6572C186.36 48.3801 186.653 48.1602 186.987 48.016C187.321 47.8717 187.685 47.8074 188.05 47.8283C188.079 47.8319 188.108 47.8411 188.134 47.8555C188.16 47.8699 188.182 47.8892 188.201 47.9123C188.219 47.9353 188.232 47.9616 188.24 47.9897C188.247 48.0178 188.249 48.0471 188.245 48.0758C188.237 48.1345 188.207 48.1879 188.159 48.2245C188.111 48.2611 188.051 48.278 187.99 48.2715C187.701 48.2557 187.413 48.3087 187.15 48.4261C186.887 48.5435 186.657 48.7216 186.481 48.945C186.448 48.9791 186.404 49.0015 186.357 49.0083Z" fill="#263238"/>
<path d="M210.341 70.6755C210.903 73.3689 211.318 76.0219 211.649 78.7325C211.996 81.4482 212.194 84.18 212.241 86.9161V87.1751C212.241 87.1751 212.241 87.3593 212.241 87.4629C212.24 87.5902 212.228 87.7172 212.205 87.8427C212.099 88.496 211.767 89.0946 211.264 89.5404C210.858 89.8919 210.364 90.1339 209.832 90.2425C209.503 90.3124 209.168 90.3452 208.832 90.3404C208.349 90.3272 207.869 90.2674 207.399 90.162C206.985 90.0756 206.6 89.9663 206.215 89.8569C204.837 89.4036 203.494 88.8555 202.196 88.2168C199.691 86.9899 197.269 85.6078 194.945 84.0789L196.129 81.9841C197.378 82.479 198.639 82.997 199.9 83.4746C201.16 83.9523 202.409 84.4415 203.67 84.8616C204.873 85.284 206.1 85.6357 207.346 85.9148C207.642 85.9781 207.938 86.0299 208.18 86.0586C208.377 86.0808 208.576 86.0808 208.772 86.0586C208.837 86.0586 208.843 86.0586 208.772 86.0586C208.577 86.1023 208.397 86.1957 208.251 86.3291C208.006 86.5448 207.838 86.8312 207.772 87.1463V87.2787C207.772 87.2787 207.772 87.3938 207.772 87.319V87.0773C207.547 84.5163 207.18 81.8978 206.795 79.331C206.411 76.7643 205.931 74.1228 205.475 71.5733L210.341 70.6755Z" fill="#FFB573"/>
<path d="M208.074 65.1968C210.051 65.7723 212.419 72.379 212.419 72.379L204.765 77.7024C204.765 77.7024 201.978 72.1891 202.806 69.7087C203.67 67.1248 205.825 64.5235 208.074 65.1968Z" fill="#263238"/>
<path d="M191.909 49.3477L190.933 49.2556C190.933 49.2556 191.542 49.8715 191.909 49.3477Z" fill="#263238"/>
<path d="M196.633 82.1857L191.897 80.0046L193.152 84.6371C193.152 84.6371 195.94 85.9895 197.296 84.5393L196.633 82.1857Z" fill="#FFB573"/>
<path d="M187.931 80.8736L189.192 84.6946L193.158 84.637L191.903 80.0046L187.931 80.8736Z" fill="#FFB573"/>
<path d="M205.221 94.0465C198.337 94.9099 191.386 95.1527 184.457 94.7717C184.34 94.7642 184.23 94.7125 184.151 94.6276C184.073 94.5426 184.032 94.4312 184.037 94.317C184.037 93.8969 184.084 93.4768 184.102 93.0567C184.104 93.0002 184.118 92.9448 184.142 92.8936C184.167 92.8423 184.201 92.7964 184.244 92.7584C184.287 92.7203 184.338 92.691 184.392 92.6721C184.447 92.6531 184.505 92.645 184.563 92.6481C191.362 93.0233 198.183 92.7864 204.937 91.9402C205.052 91.9271 205.168 91.9582 205.26 92.0271C205.351 92.0959 205.412 92.1969 205.428 92.3085C205.481 92.7286 205.541 93.1488 205.6 93.5689C205.607 93.6244 205.603 93.6809 205.588 93.735C205.573 93.7891 205.548 93.8398 205.512 93.8841C205.477 93.9285 205.433 93.9657 205.383 93.9936C205.333 94.0214 205.278 94.0394 205.221 94.0465Z" fill="#3B9549"/>
<path opacity="0.4" d="M205.221 94.0465C198.337 94.9099 191.386 95.1527 184.457 94.7717C184.34 94.7642 184.23 94.7125 184.151 94.6276C184.073 94.5426 184.032 94.4312 184.037 94.317C184.037 93.8969 184.084 93.4768 184.102 93.0567C184.104 93.0002 184.118 92.9448 184.142 92.8936C184.167 92.8423 184.201 92.7964 184.244 92.7584C184.287 92.7203 184.338 92.691 184.392 92.6721C184.447 92.6531 184.505 92.645 184.563 92.6481C191.362 93.0233 198.183 92.7864 204.937 91.9402C205.052 91.9271 205.168 91.9582 205.26 92.0271C205.351 92.0959 205.412 92.1969 205.428 92.3085C205.481 92.7286 205.541 93.1488 205.6 93.5689C205.607 93.6244 205.603 93.6809 205.588 93.735C205.573 93.7891 205.548 93.8398 205.512 93.8841C205.477 93.9285 205.433 93.9657 205.383 93.9936C205.333 94.0214 205.278 94.0394 205.221 94.0465Z" fill="black"/>
<path d="M198.29 31.1218C198.29 31.5316 198.165 31.9321 197.931 32.2728C197.697 32.6135 197.364 32.8791 196.975 33.0359C196.585 33.1927 196.157 33.2337 195.744 33.1538C195.33 33.0739 194.95 32.8765 194.652 32.5868C194.354 32.2971 194.151 31.9279 194.069 31.526C193.987 31.1241 194.029 30.7076 194.191 30.329C194.352 29.9504 194.625 29.6269 194.975 29.3992C195.326 29.1716 195.738 29.05 196.159 29.05C196.724 29.05 197.266 29.2683 197.666 29.6569C198.066 30.0454 198.29 30.5724 198.29 31.1218Z" fill="white"/>
<path d="M187.742 33.1936C188.919 33.1936 189.873 32.266 189.873 31.1218C189.873 29.9776 188.919 29.05 187.742 29.05C186.565 29.05 185.611 29.9776 185.611 31.1218C185.611 32.266 186.565 33.1936 187.742 33.1936Z" fill="white"/>
<path d="M206.647 31.1218C206.647 31.5316 206.523 31.9321 206.288 32.2728C206.054 32.6135 205.721 32.8791 205.332 33.0359C204.943 33.1927 204.514 33.2337 204.101 33.1538C203.688 33.0739 203.308 32.8765 203.01 32.5868C202.712 32.2971 202.509 31.9279 202.427 31.526C202.344 31.1241 202.387 30.7076 202.548 30.329C202.709 29.9504 202.982 29.6269 203.333 29.3992C203.683 29.1716 204.095 29.05 204.517 29.05C204.796 29.05 205.074 29.1036 205.332 29.2078C205.591 29.3119 205.825 29.4645 206.023 29.6569C206.221 29.8492 206.378 30.0776 206.485 30.329C206.592 30.5803 206.647 30.8498 206.647 31.1218Z" fill="white"/>
<path d="M118.891 202.447L123.177 201.48L121.502 191.737L117.216 192.703L118.891 202.447Z" fill="#CE7A63"/>
<path d="M123.289 200.945L118.477 202.033C118.395 202.048 118.322 202.094 118.275 202.161C118.227 202.227 118.208 202.309 118.222 202.389L118.844 206.136C118.865 206.233 118.907 206.324 118.965 206.405C119.023 206.487 119.097 206.556 119.183 206.61C119.269 206.663 119.364 206.699 119.465 206.717C119.565 206.734 119.668 206.732 119.767 206.711C121.436 206.308 122.212 206.032 124.331 205.56C125.633 205.267 131.203 204.145 132.996 203.742C134.79 203.339 134.346 201.624 133.547 201.635C129.966 201.71 125.509 201.699 124.076 201.06C123.834 200.938 123.557 200.898 123.289 200.945Z" fill="#263238"/>
<path opacity="0.2" d="M117.216 192.709L121.502 191.737L122.366 196.761L118.075 197.728L117.216 192.709Z" fill="black"/>
<path d="M110.782 95.9685C110.782 95.9685 116.429 130.7 118.086 142.814C119.904 156.079 123.739 194.879 123.739 194.879L115.973 196.985C115.973 196.985 108.616 159.382 105.585 146.486C102.294 132.489 95.1025 95.9915 95.1025 95.9915L110.782 95.9685Z" fill="#3B9549"/>
<path opacity="0.5" d="M110.782 95.9685C110.782 95.9685 116.429 130.7 118.086 142.814C119.904 156.079 123.739 194.879 123.739 194.879L115.973 196.985C115.973 196.985 108.616 159.382 105.585 146.486C102.294 132.489 95.1025 95.9915 95.1025 95.9915L110.782 95.9685Z" fill="black"/>
<path opacity="0.3" d="M101.572 108.169C104.531 115.53 104.365 130.084 103.093 135.218C101.317 126.798 99.2572 116.727 97.6768 108.894C98.2568 106.88 99.7662 103.692 101.572 108.169Z" fill="black"/>
<path d="M115.778 197.112L124.094 194.885L123.958 191.599L114.588 194.741L115.778 197.112Z" fill="#3B9549"/>
<path d="M124.976 201.33C124.586 201.407 124.19 201.443 123.792 201.44C123.772 201.44 123.752 201.434 123.735 201.422C123.718 201.411 123.705 201.395 123.697 201.376C123.689 201.36 123.684 201.343 123.684 201.325C123.684 201.307 123.689 201.289 123.697 201.273C123.816 201.146 124.84 200.07 125.414 200.151C125.479 200.161 125.54 200.187 125.591 200.226C125.643 200.265 125.684 200.316 125.71 200.375C125.766 200.461 125.795 200.561 125.795 200.663C125.795 200.765 125.766 200.864 125.71 200.951C125.521 201.159 125.26 201.294 124.976 201.33ZM124.041 201.233C124.84 201.233 125.402 201.06 125.556 200.824C125.589 200.769 125.607 200.706 125.607 200.643C125.607 200.579 125.589 200.516 125.556 200.461C125.546 200.431 125.527 200.405 125.502 200.384C125.477 200.364 125.446 200.351 125.414 200.346C125.1 200.306 124.467 200.818 124.041 201.233Z" fill="#3B9549"/>
<path d="M123.822 201.434H123.774C123.757 201.431 123.742 201.424 123.729 201.413C123.717 201.401 123.708 201.387 123.703 201.371C123.703 201.319 123.313 200.145 123.65 199.644C123.693 199.58 123.751 199.526 123.818 199.486C123.886 199.446 123.962 199.422 124.041 199.414C124.127 199.396 124.217 199.407 124.296 199.446C124.374 199.485 124.437 199.549 124.473 199.627C124.674 200.059 124.236 201.066 123.881 201.411L123.822 201.434ZM124.017 199.621C123.977 199.63 123.939 199.646 123.906 199.668C123.872 199.691 123.844 199.72 123.822 199.754C123.671 200.202 123.671 200.686 123.822 201.135C124.149 200.73 124.308 200.221 124.266 199.708C124.266 199.656 124.189 199.598 124.041 199.61L124.017 199.621Z" fill="#3B9549"/>
<path d="M111.019 62.9526C111.705 63.8792 112.274 64.7251 112.854 65.6344C113.434 66.5437 113.978 67.43 114.493 68.3507C115.552 70.1945 116.513 72.0905 117.37 74.0309C117.796 75.0034 118.216 75.9875 118.583 76.9946C118.779 77.4953 118.944 78.0075 119.116 78.5197C119.199 78.7902 119.294 78.9973 119.371 79.3139C119.448 79.6304 119.525 79.9354 119.578 80.2922C119.646 80.7091 119.684 81.1303 119.69 81.5525C119.69 81.877 119.658 82.2007 119.596 82.5194C119.479 83.0919 119.219 83.6276 118.838 84.0789C118.566 84.3915 118.231 84.6479 117.855 84.8328C117.532 84.9953 117.181 85.1005 116.82 85.1436C116.377 85.1942 115.928 85.159 115.5 85.04C115.043 84.9195 114.611 84.7249 114.221 84.4645C113.682 84.1021 113.191 83.6769 112.759 83.1984C112.359 82.7655 111.993 82.3038 111.664 81.8173L113.854 79.4232C114.671 79.769 115.514 80.0538 116.376 80.2749C116.518 80.2749 116.654 80.2749 116.547 80.2059C116.378 80.1332 116.191 80.1111 116.009 80.1426C115.774 80.1678 115.546 80.2321 115.334 80.3325C115.053 80.4718 114.805 80.6666 114.607 80.9044C114.408 81.1423 114.262 81.4179 114.18 81.7137C114.138 81.8633 114.132 81.9151 114.109 81.9208C114.085 81.9266 114.032 81.8173 113.961 81.6906L113.718 81.213C113.629 81.0518 113.528 80.7929 113.434 80.5857C113.238 80.1483 113.061 79.711 112.842 79.2793C112.439 78.4103 112.019 77.5529 111.569 76.6839C110.67 74.9574 109.705 73.2712 108.698 71.5965C108.189 70.7621 107.674 69.9276 107.148 69.1046C106.621 68.2817 106.076 67.4357 105.579 66.7048L111.019 62.9526Z" fill="#CE7A63"/>
<path d="M109.367 59.0679C105.011 58.0838 102.365 60.7944 103.667 66.0947C104.475 69.1269 105.463 72.111 106.626 75.0321C106.881 75.6881 107.118 76.2751 107.313 76.7585L117.198 71.3835C116.133 67.1766 112.279 59.7297 109.367 59.0679Z" fill="#3B9549"/>
<path opacity="0.3" d="M109.551 64.0918C106.923 61.7898 109.61 71.067 110.734 74.9114L113.641 73.3345C113.333 70.6699 111.569 65.8471 109.551 64.0918Z" fill="black"/>
<path d="M86.4072 204.277H90.7933L91.4445 194.396H87.0583L86.4072 204.277Z" fill="#CE7A63"/>
<path d="M91.03 203.782H86.0994C86.0582 203.781 86.0171 203.787 85.9784 203.801C85.9397 203.815 85.9043 203.836 85.874 203.863C85.8438 203.891 85.8194 203.923 85.8022 203.96C85.785 203.996 85.7754 204.036 85.7738 204.076L85.5016 207.868C85.5 207.967 85.5186 208.064 85.5562 208.156C85.5939 208.247 85.6499 208.33 85.721 208.401C85.792 208.471 85.8767 208.526 85.9702 208.564C86.0636 208.602 86.1638 208.622 86.2651 208.622C87.9817 208.593 88.7985 208.495 90.9708 208.495C92.3026 208.495 97.9731 208.634 99.814 208.634C101.655 208.634 101.619 206.861 100.838 206.7C97.3457 205.981 93.0129 204.973 91.7817 204.047C91.5703 203.877 91.3046 203.783 91.03 203.782Z" fill="#263238"/>
<path opacity="0.2" d="M87.0581 194.396H91.4442L91.1068 199.489H86.7207L87.0581 194.396Z" fill="black"/>
<path d="M102.217 95.9685C102.217 95.9685 102.365 128.357 101.554 140.569C100.666 153.95 93.001 198.263 93.001 198.263H84.9629C84.9629 198.263 88.9583 155.026 88.5795 141.784C88.171 127.396 87.3128 95.9685 87.3128 95.9685H102.217Z" fill="#3B9549"/>
<path opacity="0.5" d="M102.217 95.9685C102.217 95.9685 102.365 128.357 101.554 140.569C100.666 153.95 93.001 198.263 93.001 198.263H84.9629C84.9629 198.263 88.9583 155.026 88.5795 141.784C88.171 127.396 87.3128 95.9685 87.3128 95.9685H102.217Z" fill="black"/>
<path d="M84.6373 198.263H93.3266L93.8297 195.293L84.2407 195.759L84.6373 198.263Z" fill="#3B9549"/>
<path d="M92.5807 204.524C92.1817 204.515 91.7849 204.465 91.3969 204.375C91.3781 204.368 91.3613 204.358 91.3479 204.344C91.3344 204.33 91.3248 204.313 91.3199 204.294C91.317 204.275 91.32 204.256 91.3284 204.238C91.3369 204.221 91.3504 204.206 91.3673 204.196C91.5034 204.098 92.7523 203.276 93.2909 203.477C93.351 203.501 93.4038 203.539 93.4443 203.589C93.4847 203.638 93.5114 203.697 93.5218 203.759C93.5488 203.852 93.551 203.951 93.5282 204.046C93.5055 204.14 93.4585 204.228 93.3916 204.3C93.1587 204.469 92.8701 204.549 92.5807 204.524ZM91.6928 204.231C92.4741 204.38 93.0542 204.357 93.2613 204.156C93.3049 204.109 93.335 204.052 93.3485 203.991C93.362 203.929 93.3585 203.865 93.3383 203.805C93.3338 203.774 93.3212 203.744 93.3015 203.719C93.2818 203.693 93.2557 203.674 93.2258 203.661C92.9299 203.552 92.2018 203.891 91.6928 204.231Z" fill="#3B9549"/>
<path d="M91.4322 204.375H91.3848C91.3702 204.366 91.3579 204.354 91.3486 204.34C91.3394 204.326 91.3336 204.311 91.3316 204.294C91.3316 204.242 91.2368 203.017 91.6867 202.602C91.742 202.547 91.8101 202.506 91.8853 202.482C91.9606 202.458 92.0407 202.452 92.1188 202.464C92.2055 202.467 92.2886 202.498 92.355 202.553C92.4215 202.607 92.4675 202.681 92.4858 202.763C92.5865 203.23 91.9235 204.122 91.4855 204.375H91.4322ZM92.0241 202.648C91.9835 202.647 91.9431 202.654 91.9054 202.669C91.8677 202.684 91.8336 202.706 91.8051 202.735C91.5601 203.143 91.4544 203.617 91.5032 204.087C91.9166 203.764 92.1894 203.302 92.2668 202.792C92.2668 202.735 92.2195 202.666 92.0715 202.648H92.0241Z" fill="#3B9549"/>
<path d="M110.782 95.9688H87.3127C87.1647 93.9315 87.7034 87.3018 87.4074 78.8593C87.2388 72.606 86.512 66.3788 85.2351 60.2478C85.1345 59.7874 85.0279 59.3328 84.9214 58.8724C84.9214 58.8724 86.1052 58.6364 87.8158 58.3947C89.2364 58.1933 91.0121 57.9861 92.7523 57.9056C96.0742 57.7213 99.4042 57.7213 102.726 57.9056C104.259 58.0437 105.757 58.2911 106.946 58.5156C108.473 58.8148 109.373 59.0911 109.373 59.0911C109.373 59.0911 115.044 71.9764 110.782 95.9688Z" fill="#3B9549"/>
<path d="M111.102 78.6578C110.694 77.9674 110.151 77.3613 109.503 76.8737C109.067 76.63 108.649 76.3549 108.254 76.0508C108.214 76.0212 108.166 76.0024 108.116 75.9965C108.065 75.9905 108.014 75.9975 107.967 76.0167C107.921 76.0359 107.88 76.0667 107.849 76.106C107.819 76.1453 107.799 76.1917 107.793 76.2407C107.745 76.5745 107.887 77.1212 108.728 77.9154C108.793 78.9686 110.385 80.1311 110.385 80.1311L111.102 78.6578Z" fill="#CE7A63"/>
<path opacity="0.3" d="M107.52 81.2017H102.643L106.017 71.8496H110.894L107.52 81.2017Z" fill="black"/>
<path d="M107.852 81.2017H102.975L106.348 71.8496H111.226L107.852 81.2017Z" fill="#263238"/>
<path opacity="0.3" d="M87.4077 78.8591C87.2391 72.6058 86.5122 66.3786 85.2354 60.2476C86.8039 60.1152 89.4853 60.2476 89.9115 62.728C90.3613 65.3753 89.7043 71.6021 87.4077 78.8591Z" fill="black"/>
<path d="M89.5088 64.2819L87.0109 72.5922L85.7738 76.7415L85.1819 78.8133L84.886 79.8435L84.7439 80.3614V80.4247C84.7439 80.4247 84.7439 80.4592 84.7439 80.4247C84.7467 80.3883 84.7467 80.3518 84.7439 80.3154C84.7551 80.2082 84.7551 80.1002 84.7439 79.9931C84.7014 79.7197 84.5984 79.4586 84.442 79.2277C84.3473 79.0897 84.2244 78.9722 84.081 78.8824C83.9271 78.8018 84.0277 78.8824 84.1934 78.9572C84.7022 79.1307 85.231 79.2428 85.7679 79.291C87.144 79.4328 88.5278 79.4904 89.9113 79.4636C92.782 79.4291 95.7771 79.268 98.707 79.0723L99.3582 82.2145C96.403 83.1303 93.3791 83.821 90.3138 84.2806C88.7027 84.5307 87.0739 84.6577 85.4424 84.6604C84.4755 84.6613 83.5119 84.5512 82.5716 84.3324C81.8812 84.1746 81.2269 83.8936 80.642 83.5036C80.1873 83.1964 79.7992 82.8054 79.4996 82.3526C79.1275 81.8203 78.894 81.2081 78.8189 80.5686C78.7895 80.2796 78.7895 79.9885 78.8189 79.6996C78.8189 79.573 78.8189 79.4464 78.8722 79.3197L78.9136 79.0896L79.0201 78.514L79.2273 77.4148C79.3694 76.684 79.5233 75.9531 79.689 75.2279C80.0086 73.7777 80.3401 72.3504 80.713 70.8944C81.4411 68.0169 82.252 65.197 83.1872 62.354L89.5088 64.2819Z" fill="#CE7A63"/>
<path d="M84.9153 58.8664C81.9913 59.5282 78.7121 67.0155 77.5579 71.2224C77.3626 71.9418 77.2087 72.5576 77.0903 73.0295C76.9364 73.651 76.8535 74.0251 76.8535 74.0251L86.6614 76.7415C86.8627 76.2695 87.1113 75.6825 87.3717 75.015C88.5919 72.0976 89.6354 69.1133 90.497 66.0774C91.888 60.7886 89.2836 57.888 84.9153 58.8664Z" fill="#3B9549"/>
<path d="M102.247 57.8708C99.3523 57.2032 98.861 55.4594 99.0682 53.543C99.1182 53.0628 99.1992 52.5861 99.3108 52.1158L95.7002 49.1807L93.0484 47.0283C93.7646 50.1533 94.5519 55.845 92.3618 57.9283C95.2656 60.2783 98.4858 62.2319 101.933 63.7351C105.36 61.2892 102.247 57.8708 102.247 57.8708Z" fill="#CE7A63"/>
<path opacity="0.2" d="M99.3107 52.116C99.1991 52.5863 99.118 53.063 99.068 53.5432C97.7185 53.2785 95.6764 52.1045 95.5166 50.6197C95.5248 50.1336 95.5944 49.6504 95.7238 49.1809L99.3107 52.116Z" fill="black"/>
<path d="M106.076 37.1186C107.337 39.0637 104.958 44.6632 101.933 44.2603C98.9083 43.8575 103.697 33.424 106.076 37.1186Z" fill="#263238"/>
<path d="M93.3147 40.7271C92.782 44.9455 92.2434 47.3799 93.9777 49.9351C94.5376 50.7821 95.3249 51.4643 96.2546 51.9079C97.1844 52.3515 98.2211 52.5396 99.2528 52.4519C100.284 52.3642 101.272 52.0041 102.108 51.4104C102.945 50.8167 103.598 50.012 103.999 49.0833C105.626 45.5325 106.23 39.2365 102.395 36.7101C101.571 36.1442 100.608 35.798 99.6038 35.7059C98.5993 35.6139 97.5876 35.7793 96.6692 36.1855C95.7509 36.5918 94.958 37.2248 94.3694 38.0216C93.7809 38.8184 93.4173 39.7512 93.3147 40.7271Z" fill="#CE7A63"/>
<path d="M92.8116 43.9612C95.0312 43.6907 96.6353 40.0938 96.1795 38.4134C97.8132 39.5644 110.782 41.0261 108.805 32.8022C105.105 32.8022 89.6685 32.1288 92.2315 35.3689C90.4558 35.3689 88.7747 36.9343 89.9822 40.5485C91.2016 44.2662 92.8116 43.9612 92.8116 43.9612Z" fill="#263238"/>
<path d="M90.9114 44.5138C91.2878 45.4954 92.0034 46.3193 92.9358 46.8445C94.1196 47.4833 94.8299 46.4301 94.5813 45.118C94.3623 43.9268 93.4744 42.16 92.2136 42.0737C90.9528 41.9874 90.4379 43.2707 90.9114 44.5138Z" fill="#CE7A63"/>
<path d="M99.5295 43.2361C99.4644 43.5757 99.5946 43.8865 99.8195 43.9325C100.044 43.9785 100.281 43.7426 100.346 43.403C100.411 43.0635 100.281 42.7527 100.056 42.7067C99.8313 42.6606 99.5946 42.8966 99.5295 43.2361Z" fill="#263238"/>
<path d="M103.436 44.0475C103.371 44.3871 103.501 44.7036 103.726 44.7496C103.951 44.7957 104.188 44.5597 104.253 44.2202C104.318 43.8806 104.188 43.5698 103.963 43.5238C103.738 43.4778 103.501 43.7137 103.436 44.0475Z" fill="#263238"/>
<path d="M102.158 43.9612C102.373 45.0835 102.742 46.173 103.253 47.2011C102.983 47.3169 102.69 47.3733 102.396 47.3664C102.101 47.3594 101.811 47.2892 101.548 47.1608L102.158 43.9612Z" fill="#BA4D3C"/>
<path d="M99.9617 47.7825C99.5745 47.656 99.2176 47.4546 98.9124 47.1905C98.6073 46.9265 98.3602 46.6052 98.186 46.2459C98.1779 46.233 98.1728 46.2185 98.1711 46.2035C98.1693 46.1885 98.171 46.1733 98.176 46.159C98.1809 46.1447 98.189 46.1316 98.1997 46.1206C98.2104 46.1097 98.2234 46.1011 98.2379 46.0956C98.2524 46.0901 98.2679 46.0877 98.2834 46.0886C98.2989 46.0895 98.314 46.0937 98.3277 46.1009C98.3413 46.1081 98.3532 46.1181 98.3625 46.1302C98.3717 46.1423 98.3782 46.1563 98.3813 46.1711C98.5771 46.5588 98.8621 46.8976 99.2141 47.161C99.5662 47.4245 99.976 47.6056 100.412 47.6904C100.426 47.6924 100.439 47.6972 100.451 47.7045C100.463 47.7119 100.473 47.7215 100.481 47.7329C100.488 47.7443 100.494 47.7572 100.496 47.7707C100.498 47.7842 100.498 47.798 100.494 47.8113C100.487 47.8368 100.471 47.8588 100.448 47.8727C100.424 47.8866 100.397 47.8914 100.37 47.8861C100.232 47.8596 100.096 47.825 99.9617 47.7825Z" fill="#263238"/>
<path d="M98.559 41.7455C98.5251 41.734 98.4948 41.7141 98.4711 41.6878C98.4475 41.6615 98.4312 41.6296 98.4241 41.5954C98.4169 41.5611 98.419 41.5257 98.4302 41.4925C98.4415 41.4593 98.4614 41.4295 98.488 41.406C98.7271 41.187 99.0178 41.0284 99.3346 40.9442C99.6514 40.8599 99.9847 40.8525 100.305 40.9227C100.358 40.9387 100.402 40.974 100.429 41.0213C100.455 41.0685 100.462 41.124 100.447 41.1759C100.43 41.2264 100.393 41.2687 100.345 41.2943C100.296 41.3199 100.24 41.3269 100.187 41.3139C99.9351 41.2623 99.6743 41.2709 99.4268 41.3391C99.1793 41.4073 98.9526 41.5329 98.7662 41.7052C98.7386 41.7293 98.7048 41.7458 98.6683 41.7529C98.6319 41.76 98.5941 41.7574 98.559 41.7455Z" fill="#263238"/>
<path d="M105.36 43.0806C105.328 43.0715 105.3 43.0545 105.277 43.0313C105.254 43.0081 105.238 42.9795 105.23 42.9483C105.169 42.6964 105.049 42.4617 104.879 42.2621C104.71 42.0625 104.496 41.9035 104.253 41.7974C104.227 41.789 104.203 41.7756 104.182 41.7578C104.161 41.7401 104.145 41.7184 104.133 41.6941C104.121 41.6698 104.115 41.6435 104.114 41.6167C104.114 41.5899 104.118 41.5633 104.129 41.5384C104.146 41.4882 104.184 41.4468 104.232 41.4231C104.281 41.3994 104.337 41.3954 104.389 41.4118C104.695 41.5384 104.966 41.7329 105.181 41.9798C105.396 42.2266 105.549 42.5188 105.626 42.8332C105.641 42.8843 105.634 42.939 105.608 42.9853C105.581 43.0316 105.537 43.0659 105.484 43.0806C105.444 43.0952 105.4 43.0952 105.36 43.0806Z" fill="#263238"/>
<path d="M97.9257 79.2275L102.614 76.8679L101.809 82.1913C101.809 82.1913 97.9553 83.2214 97.5942 81.2475L97.9257 79.2275Z" fill="#CE7A63"/>
<path d="M101.122 77.6162C101.647 76.9957 102.29 76.4798 103.016 76.0969C103.541 75.8666 104.042 75.5891 104.514 75.2681C104.558 75.2451 104.608 75.2338 104.659 75.2352C104.709 75.2367 104.758 75.2509 104.801 75.2765C104.844 75.302 104.88 75.3381 104.904 75.381C104.928 75.424 104.941 75.4723 104.94 75.5214C104.85 75.8833 104.684 76.2234 104.453 76.5204C104.222 76.8174 103.93 77.0651 103.596 77.2479C103.348 78.2781 101.572 79.1816 101.572 79.1816L101.122 77.6162Z" fill="#CE7A63"/>
<path d="M106.449 77.6047L105.792 80.9253C105.764 81.0678 105.693 81.1988 105.587 81.3014C105.482 81.404 105.347 81.4735 105.2 81.5008L101.767 82.1914L102.602 76.9141L105.686 76.7587C105.797 76.7513 105.909 76.769 106.013 76.8105C106.116 76.852 106.209 76.9162 106.283 76.998C106.357 77.0799 106.41 77.1772 106.439 77.2825C106.468 77.3877 106.471 77.498 106.449 77.6047Z" fill="#CE7A63"/>
<path d="M97.5645 81.2473L97.9255 79.2274L102.613 76.8679" fill="#CE7A63"/>
<path d="M113.179 79.6649L109.444 77.4666L109.172 82.1912C109.172 82.1912 113.108 83.6587 113.505 81.6848L113.179 79.6649Z" fill="#CE7A63"/>
<path d="M107.728 77.5184L107.432 81.2418C107.423 81.3438 107.45 81.4456 107.508 81.5311C107.566 81.6165 107.652 81.6808 107.751 81.7137L109.166 82.1914L109.438 77.4666L108.361 77.1098C108.291 77.0867 108.217 77.0794 108.145 77.0885C108.072 77.0977 108.002 77.123 107.941 77.1624C107.88 77.2019 107.829 77.2546 107.792 77.3163C107.755 77.378 107.733 77.4471 107.728 77.5184Z" fill="#CE7A63"/>
<path d="M102.217 19.2782C102.217 19.6879 102.092 20.0885 101.858 20.4291C101.624 20.7698 101.291 21.0354 100.902 21.1922C100.513 21.349 100.084 21.39 99.6708 21.31C99.2574 21.2301 98.8777 21.0328 98.5797 20.7431C98.2817 20.4534 98.0787 20.0842 97.9965 19.6824C97.9143 19.2805 97.9565 18.864 98.1178 18.4854C98.2791 18.1069 98.5522 17.7833 98.9026 17.5557C99.253 17.328 99.665 17.2065 100.086 17.2065C100.652 17.2065 101.194 17.4248 101.593 17.8133C101.993 18.2018 102.217 18.7288 102.217 19.2782Z" fill="#3B9549"/>
<path d="M93.8296 20.4982C93.8296 20.908 93.7046 21.3085 93.4705 21.6493C93.2363 21.99 92.9035 22.2555 92.5142 22.4124C92.1248 22.5692 91.6964 22.6102 91.283 22.5303C90.8697 22.4503 90.49 22.253 90.192 21.9632C89.894 21.6735 89.691 21.3043 89.6088 20.9024C89.5266 20.5005 89.5688 20.0839 89.7301 19.7053C89.8914 19.3267 90.1645 19.0031 90.5149 18.7754C90.8653 18.5478 91.2773 18.4263 91.6987 18.4263C92.2639 18.4263 92.8059 18.6446 93.2055 19.0331C93.6051 19.4217 93.8296 19.9487 93.8296 20.4982Z" fill="#3B9549"/>
<path d="M108.479 23.7959C109.656 23.7959 110.61 22.8683 110.61 21.7241C110.61 20.5799 109.656 19.6523 108.479 19.6523C107.303 19.6523 106.349 20.5799 106.349 21.7241C106.349 22.8683 107.303 23.7959 108.479 23.7959Z" fill="#3B9549"/>
</svg>
