<svg width="899" height="742" viewBox="0 0 899 742" fill="none" xmlns="http://www.w3.org/2000/svg">
<path d="M898.632 355.848C898.795 359.199 898.904 362.56 898.959 365.933L898.459 365.941C898.486 367.625 898.5 369.311 898.5 371C898.5 372.689 898.486 374.375 898.459 376.059L898.959 376.067C898.904 379.44 898.795 382.801 898.632 386.152L898.133 386.127C897.969 389.491 897.751 392.844 897.479 396.185L897.977 396.225C897.704 399.583 897.377 402.929 896.996 406.263L896.499 406.206C896.117 409.551 895.681 412.884 895.192 416.203L895.686 416.276C895.195 419.606 894.651 422.923 894.054 426.226L893.562 426.137C892.963 429.449 892.311 432.746 891.607 436.029L892.096 436.133C891.39 439.424 890.631 442.699 889.821 445.958L889.336 445.838C888.524 449.101 887.661 452.349 886.746 455.581L887.228 455.717C886.311 458.955 885.344 462.176 884.326 465.38L883.849 465.229C882.832 468.431 881.763 471.616 880.645 474.784L881.117 474.95C879.997 478.122 878.828 481.276 877.609 484.413L877.143 484.232C875.927 487.361 874.662 490.473 873.348 493.566L873.808 493.762C872.494 496.856 871.132 499.932 869.722 502.989L869.268 502.779C867.861 505.828 866.408 508.857 864.907 511.866L865.355 512.089C863.856 515.096 862.31 518.083 860.718 521.05L860.278 520.814C858.691 523.772 857.058 526.71 855.381 529.628L855.814 529.877C854.14 532.788 852.422 535.678 850.66 538.546L850.234 538.284C848.476 541.146 846.675 543.986 844.83 546.804L845.249 547.078C843.411 549.885 841.531 552.671 839.609 555.434L839.199 555.148C837.281 557.906 835.322 560.641 833.321 563.353L833.723 563.65C831.733 566.349 829.702 569.025 827.631 571.677L827.236 571.37C825.17 574.016 823.065 576.64 820.92 579.24L821.305 579.558C819.171 582.145 816.998 584.708 814.787 587.248L814.41 586.919C812.207 589.451 809.965 591.958 807.687 594.442L808.055 594.78C805.787 597.251 803.483 599.698 801.142 602.121L800.783 601.774C798.451 604.187 796.084 606.575 793.682 608.938L794.033 609.295C791.642 611.648 789.215 613.976 786.755 616.279L786.413 615.914C783.964 618.206 781.482 620.472 778.966 622.714L779.298 623.087C776.793 625.319 774.254 627.525 771.684 629.706L771.36 629.325C768.803 631.494 766.214 633.637 763.593 635.755L763.907 636.143C761.297 638.252 758.655 640.335 755.983 642.392L755.678 641.996C753.021 644.041 750.334 646.059 747.617 648.051L747.913 648.455C745.206 650.439 742.47 652.397 739.706 654.328L739.42 653.918C736.671 655.838 733.894 657.731 731.089 659.597L731.366 660.013C728.571 661.872 725.75 663.704 722.901 665.508L722.633 665.086C719.8 666.88 716.941 668.647 714.056 670.386L714.314 670.814C711.44 672.546 708.54 674.251 705.614 675.928L705.365 675.495C702.456 677.162 699.522 678.802 696.563 680.414L696.802 680.854C693.856 682.459 690.885 684.036 687.89 685.585L687.661 685.141C684.681 686.682 681.679 688.195 678.653 689.68L678.873 690.129C675.862 691.607 672.827 693.056 669.771 694.477L669.56 694.024C666.517 695.438 663.453 696.824 660.366 698.182L660.568 698.639C657.498 699.989 654.407 701.31 651.296 702.603L651.104 702.141C648.003 703.429 644.883 704.688 641.742 705.918L641.924 706.383C638.803 707.605 635.662 708.799 632.502 709.963L632.329 709.493C629.177 710.654 626.006 711.786 622.816 712.889L622.979 713.361C619.813 714.456 616.628 715.521 613.425 716.557L613.272 716.081C610.073 717.115 606.857 718.12 603.623 719.095L603.767 719.574C600.562 720.541 597.34 721.478 594.101 722.386L593.966 721.904C590.73 722.811 587.478 723.688 584.21 724.535L584.335 725.019C581.093 725.86 577.835 726.671 574.561 727.452L574.445 726.965C571.179 727.745 567.898 728.494 564.601 729.213L564.708 729.702C561.433 730.417 558.143 731.102 554.839 731.756L554.742 731.266C551.451 731.918 548.146 732.541 544.827 733.133L544.915 733.625C541.611 734.214 538.294 734.774 534.963 735.303L534.885 734.809C531.575 735.335 528.252 735.831 524.916 736.296L524.985 736.791C521.657 737.256 518.317 737.69 514.965 738.094L514.905 737.597C511.581 737.998 508.246 738.368 504.899 738.708L504.949 739.205C501.601 739.545 498.242 739.855 494.872 740.133L494.83 739.635C491.498 739.911 488.156 740.156 484.802 740.372L484.834 740.871C481.478 741.086 478.112 741.271 474.735 741.425L474.712 740.926C471.369 741.078 468.017 741.201 464.655 741.293L464.668 741.793C461.311 741.885 457.945 741.946 454.57 741.977L454.565 741.477C452.879 741.492 451.191 741.5 449.5 741.5C447.809 741.5 446.121 741.492 444.435 741.477L444.43 741.977C441.055 741.946 437.689 741.885 434.332 741.793L434.345 741.293C430.983 741.201 427.63 741.078 424.287 740.926L424.265 741.425C420.888 741.271 417.522 741.086 414.165 740.871L414.197 740.372C410.844 740.156 407.502 739.911 404.169 739.635L404.128 740.133C400.758 739.855 397.399 739.545 394.051 739.205L394.101 738.708C390.754 738.368 387.419 737.998 384.095 737.597L384.035 738.094C380.683 737.69 377.342 737.256 374.015 736.791L374.084 736.296C370.748 735.831 367.425 735.335 364.115 734.809L364.037 735.303C360.706 734.774 357.389 734.214 354.085 733.625L354.173 733.133C350.854 732.541 347.549 731.918 344.258 731.266L344.161 731.756C340.857 731.102 337.567 730.417 334.292 729.702L334.398 729.213C331.102 728.494 327.821 727.745 324.554 726.965L324.438 727.452C321.165 726.671 317.907 725.86 314.665 725.019L314.79 724.535C311.522 723.688 308.269 722.811 305.034 721.904L304.899 722.386C301.66 721.478 298.438 720.541 295.232 719.574L295.377 719.095C292.143 718.12 288.927 717.115 285.728 716.081L285.574 716.557C282.372 715.521 279.187 714.456 276.021 713.361L276.184 712.889C272.994 711.786 269.823 710.654 266.671 709.493L266.498 709.963C263.338 708.799 260.197 707.605 257.076 706.383L257.258 705.918C254.117 704.688 250.996 703.429 247.896 702.141L247.704 702.603C244.593 701.31 241.502 699.989 238.432 698.639L238.634 698.181C235.547 696.824 232.482 695.438 229.44 694.024L229.229 694.477C226.173 693.056 223.138 691.607 220.127 690.129L220.347 689.68C217.321 688.195 214.319 686.682 211.339 685.141L211.11 685.585C208.115 684.036 205.144 682.459 202.198 680.853L202.437 680.414C199.478 678.802 196.544 677.162 193.634 675.494L193.386 675.928C190.46 674.251 187.56 672.546 184.686 670.814L184.944 670.386C182.059 668.647 179.199 666.88 176.367 665.086L176.099 665.508C173.25 663.704 170.428 661.872 167.634 660.013L167.911 659.597C165.106 657.731 162.329 655.838 159.58 653.918L159.294 654.328C156.53 652.397 153.794 650.439 151.087 648.455L151.383 648.051C148.666 646.059 145.979 644.041 143.322 641.995L143.017 642.392C140.345 640.335 137.703 638.252 135.093 636.143L135.407 635.754C132.786 633.637 130.197 631.494 127.64 629.325L127.316 629.706C124.746 627.525 122.207 625.319 119.702 623.087L120.034 622.714C117.518 620.472 115.035 618.206 112.587 615.914L112.245 616.279C109.785 613.976 107.358 611.648 104.967 609.295L105.318 608.938C102.916 606.575 100.549 604.187 98.2174 601.774L97.8578 602.121C95.5173 599.698 93.2128 597.251 90.945 594.78L91.3134 594.441C89.0349 591.958 86.7934 589.451 84.5897 586.919L84.2125 587.248C82.0017 584.708 79.8288 582.145 77.6945 579.558L78.0802 579.239C75.9353 576.64 73.8295 574.016 71.7635 571.37L71.3693 571.677C69.2983 569.024 67.2672 566.348 65.2766 563.65L65.679 563.353C63.6784 560.641 61.7189 557.906 59.8011 555.148L59.3906 555.434C57.4688 552.67 55.5888 549.885 53.7513 547.077L54.1697 546.804C52.3253 543.986 50.5238 541.146 48.766 538.284L48.34 538.546C46.5778 535.677 44.8595 532.787 43.1858 529.877L43.6192 529.627C41.9418 526.71 40.3092 523.772 38.7221 520.813L38.2815 521.05C36.6901 518.083 35.1444 515.096 33.6451 512.089L34.0926 511.866C32.5923 508.857 31.1386 505.827 29.7322 502.779L29.2782 502.988C27.8682 499.932 26.5057 496.856 25.1914 493.762L25.6517 493.566C24.3381 490.473 23.0728 487.361 21.8566 484.231L21.3906 484.412C20.1719 481.276 19.0025 478.122 17.883 474.95L18.3545 474.784C17.2365 471.616 16.1684 468.431 15.1509 465.229L14.6744 465.38C13.6562 462.176 12.6886 458.955 11.7724 455.717L12.2535 455.581C11.3389 452.349 10.4756 449.101 9.66431 445.837L9.17907 445.958C8.3688 442.699 7.61032 439.423 6.90438 436.133L7.39326 436.028C6.68894 432.746 6.037 429.449 5.43818 426.137L4.94616 426.226C4.34897 422.923 3.80452 419.606 3.31354 416.275L3.8082 416.203C3.31895 412.884 2.88289 409.551 2.50073 406.206L2.00396 406.263C1.62319 402.929 1.29585 399.583 1.02265 396.225L1.521 396.185C1.24926 392.844 1.03117 389.491 0.86744 386.127L0.368031 386.151C0.204983 382.801 0.0957627 379.44 0.041066 376.067L0.541 376.059C0.513696 374.375 0.5 372.689 0.5 371C0.5 369.311 0.513696 367.625 0.541002 365.941L0.0410672 365.933C0.0957647 362.56 0.204985 359.199 0.368034 355.848L0.867443 355.873C1.03117 352.509 1.24926 349.156 1.52101 345.815L1.02266 345.775C1.29585 342.417 1.6232 339.071 2.00397 335.737L2.50074 335.794C2.8829 332.449 3.31897 329.116 3.80822 325.797L3.31356 325.724C3.80454 322.394 4.34899 319.077 4.94618 315.774L5.4382 315.863C6.03702 312.551 6.68896 309.254 7.39328 305.971L6.90441 305.867C7.61035 302.576 8.36884 299.301 9.17911 296.042L9.66434 296.162C10.4757 292.899 11.339 289.651 12.2536 286.419L11.7725 286.283C12.6887 283.045 13.6563 279.824 14.6745 276.62L15.151 276.771C16.1685 273.569 17.2366 270.384 18.3546 267.216L17.8831 267.05C19.0026 263.878 20.172 260.724 21.3906 257.587L21.8567 257.768C23.0729 254.639 24.3381 251.527 25.6517 248.434L25.1915 248.238C26.5057 245.144 27.8683 242.068 29.2783 239.011L29.7323 239.221C31.1386 236.172 32.5923 233.143 34.0927 230.134L33.6452 229.911C35.1444 226.904 36.6901 223.917 38.2816 220.95L38.7222 221.186C40.3092 218.228 41.9418 215.29 43.6193 212.372L43.1858 212.123C44.8596 209.212 46.5779 206.322 48.3401 203.454L48.7661 203.716C50.5239 200.854 52.3253 198.014 54.1698 195.196L53.7514 194.922C55.5888 192.115 57.4688 189.329 59.3907 186.566L59.8012 186.852C61.7189 184.094 63.6785 181.359 65.679 178.647L65.2767 178.35C67.2672 175.651 69.2984 172.975 71.3694 170.323L71.7635 170.63C73.8296 167.984 75.9354 165.36 78.0802 162.761L77.6945 162.442C79.8288 159.855 82.0017 157.292 84.2126 154.752L84.5897 155.081C86.7934 152.549 89.0349 150.042 91.3134 147.558L90.945 147.22C93.2129 144.749 95.5174 142.302 97.8578 139.879L98.2174 140.226C100.549 137.813 102.916 135.425 105.318 133.062L104.967 132.705C107.358 130.352 109.785 128.024 112.245 125.721L112.587 126.086C115.036 123.794 117.518 121.528 120.034 119.286L119.702 118.913C122.207 116.681 124.746 114.475 127.316 112.294L127.64 112.675C130.197 110.506 132.786 108.363 135.407 106.246L135.093 105.857C137.703 103.748 140.345 101.665 143.017 99.6082L143.322 100.004C145.979 97.9594 148.666 95.9406 151.383 93.9487L151.087 93.5454C153.794 91.5609 156.53 89.603 159.294 87.6721L159.58 88.082C162.329 86.1621 165.106 84.269 167.911 82.4031L167.634 81.9868C170.429 80.1279 173.25 78.2961 176.099 76.4918L176.367 76.9142C179.199 75.1201 182.059 73.3533 184.944 71.6142L184.686 71.1859C187.56 69.4536 190.46 67.7487 193.386 66.0717L193.634 66.5055C196.544 64.8377 199.478 63.1976 202.437 61.5856L202.198 61.1465C205.144 59.5413 208.115 57.9639 211.11 56.4148L211.339 56.8589C214.319 55.3177 217.321 53.8045 220.347 52.3199L220.127 51.871C223.138 50.3933 226.173 48.9438 229.229 47.523L229.44 47.9764C232.483 46.5619 235.547 45.1758 238.634 43.8185L238.432 43.3608C241.502 42.0109 244.593 40.6895 247.704 39.3971L247.896 39.8588C250.997 38.5711 254.117 37.3121 257.258 36.0823L257.076 35.6167C260.197 34.3946 263.338 33.2014 266.498 32.0374L266.671 32.5066C269.823 31.3455 272.994 30.2136 276.184 29.1112L276.021 28.6386C279.187 27.5444 282.372 26.4792 285.575 25.4435L285.728 25.9192C288.927 24.8848 292.143 23.8798 295.377 22.9046L295.233 22.4259C298.438 21.4593 301.66 20.522 304.899 19.6143L305.034 20.0957C308.27 19.1889 311.522 18.3118 314.79 17.4646L314.665 16.9806C317.907 16.1402 321.165 15.3293 324.439 14.5484L324.555 15.0347C327.821 14.2554 331.102 13.506 334.399 12.7866L334.292 12.2981C337.567 11.5834 340.857 10.8984 344.161 10.2436L344.258 10.734C347.549 10.0818 350.855 9.45945 354.173 8.86739L354.085 8.37516C357.389 7.78577 360.706 7.22636 364.037 6.69728L364.115 7.19109C367.425 6.66522 370.748 6.16935 374.084 5.70383L374.015 5.20863C377.343 4.74419 380.683 4.30994 384.035 3.90622L384.095 4.40263C387.419 4.00235 390.754 3.63212 394.101 3.29228L394.051 2.79484C397.399 2.45491 400.758 2.14536 404.128 1.86653L404.17 2.36483C407.502 2.08917 410.844 1.84358 414.198 1.62837L414.166 1.1294C417.522 0.914 420.888 0.729023 424.265 0.574804L424.288 1.07428C427.631 0.921596 430.983 0.799085 434.345 0.707074L434.332 0.207261C437.689 0.115387 441.055 0.0538957 444.43 0.0231097L444.435 0.523089C446.121 0.50771 447.809 0.5 449.5 0.5C451.191 0.5 452.879 0.50771 454.565 0.523089L454.57 0.0231102C457.945 0.0538967 461.311 0.115389 464.668 0.207263L464.655 0.707076C468.017 0.799088 471.37 0.921601 474.713 1.07429L474.735 0.574811C478.112 0.729031 481.478 0.914008 484.835 1.12941L484.803 1.62838C488.156 1.84359 491.498 2.08918 494.831 2.36484L494.872 1.86655C498.242 2.14537 501.601 2.45492 504.949 2.79485L504.899 3.2923C508.246 3.63214 511.581 4.00237 514.905 4.40265L514.965 3.90624C518.317 4.30996 521.658 4.74421 524.985 5.20866L524.916 5.70386C528.252 6.16938 531.575 6.66525 534.885 7.19111L534.963 6.69731C538.294 7.22639 541.611 7.7858 544.915 8.37519L544.827 8.86742C548.146 9.45949 551.451 10.0818 554.742 10.7341L554.839 10.2436C558.143 10.8985 561.433 11.5834 564.708 12.2982L564.602 12.7867C567.898 13.506 571.18 14.2555 574.446 15.0348L574.562 14.5484C577.835 15.3294 581.093 16.1403 584.335 16.9806L584.21 17.4646C587.478 18.3118 590.731 19.189 593.966 20.0958L594.101 19.6144C597.34 20.522 600.562 21.4594 603.768 22.426L603.623 22.9047C606.857 23.8799 610.073 24.8849 613.272 25.9193L613.426 25.4435C616.628 26.4792 619.813 27.5444 622.979 28.6386L622.816 29.1112C626.006 30.2136 629.177 31.3456 632.329 32.5066L632.502 32.0374C635.662 33.2015 638.803 34.3947 641.924 35.6167L641.742 36.0823C644.883 37.3121 648.004 38.5711 651.104 39.8589L651.296 39.3971C654.407 40.6896 657.498 42.011 660.568 43.3609L660.366 43.8186C663.453 45.1758 666.518 46.5619 669.56 47.9764L669.771 47.523C672.828 48.9438 675.862 50.3933 678.873 51.871L678.653 52.3199C681.679 53.8046 684.681 55.3177 687.661 56.859L687.891 56.4149C690.885 57.9639 693.856 59.5413 696.802 61.1466L696.563 61.5856C699.522 63.1976 702.456 64.8378 705.366 66.5055L705.614 66.0718C708.54 67.7487 711.44 69.4536 714.314 71.186L714.056 71.6142C716.941 73.3533 719.801 75.1201 722.633 76.9142L722.901 76.4918C725.75 78.2961 728.571 80.128 731.366 81.9868L731.089 82.4032C733.894 84.269 736.671 86.1621 739.42 88.082L739.706 87.6721C742.47 89.603 745.206 91.561 747.913 93.5455L747.617 93.9487C750.334 95.9407 753.021 97.9594 755.679 100.004L755.983 99.6083C758.655 101.665 761.297 103.748 763.907 105.857L763.593 106.246C766.214 108.363 768.803 110.506 771.36 112.675L771.684 112.294C774.254 114.475 776.793 116.681 779.298 118.913L778.966 119.286C781.482 121.528 783.964 123.794 786.413 126.087L786.755 125.721C789.215 128.024 791.642 130.352 794.033 132.705L793.682 133.062C796.084 135.425 798.451 137.813 800.783 140.226L801.142 139.879C803.483 142.302 805.787 144.749 808.055 147.22L807.687 147.559C809.965 150.042 812.207 152.549 814.41 155.081L814.787 154.752C816.998 157.292 819.171 159.855 821.306 162.442L820.92 162.761C823.065 165.36 825.17 167.984 827.237 170.63L827.631 170.323C829.702 172.975 831.733 175.652 833.723 178.35L833.321 178.647C835.322 181.359 837.281 184.094 839.199 186.852L839.609 186.566C841.531 189.33 843.411 192.115 845.249 194.923L844.83 195.196C846.675 198.014 848.476 200.854 850.234 203.716L850.66 203.454C852.422 206.323 854.14 209.213 855.814 212.123L855.381 212.373C857.058 215.29 858.691 218.228 860.278 221.187L860.719 220.95C862.31 223.917 863.856 226.904 865.355 229.911L864.907 230.134C866.408 233.143 867.861 236.173 869.268 239.221L869.722 239.012C871.132 242.068 872.494 245.144 873.809 248.238L873.348 248.434C874.662 251.527 875.927 254.639 877.143 257.769L877.609 257.588C878.828 260.724 879.997 263.878 881.117 267.05L880.646 267.216C881.763 270.384 882.832 273.569 883.849 276.771L884.326 276.62C885.344 279.824 886.311 283.045 887.228 286.283L886.746 286.419C887.661 289.651 888.524 292.899 889.336 296.163L889.821 296.042C890.631 299.301 891.39 302.577 892.096 305.867L891.607 305.972C892.311 309.254 892.963 312.551 893.562 315.863L894.054 315.774C894.651 319.077 895.195 322.394 895.686 325.725L895.192 325.797C895.681 329.116 896.117 332.449 896.499 335.794L896.996 335.737C897.377 339.071 897.704 342.417 897.977 345.775L897.479 345.815C897.751 349.156 897.969 352.509 898.133 355.873L898.632 355.848Z" stroke="#00BF69" stroke-dasharray="10 10"/>
</svg>
