<svg width="60" height="60" viewBox="0 0 60 60" fill="none" xmlns="http://www.w3.org/2000/svg">
<circle cx="30" cy="30" r="30" fill="#00BF69"/>
<path d="M34.5167 37.592C34.6156 37.7324 34.674 37.8973 34.6856 38.0686C34.6972 38.2399 34.6614 38.4112 34.5823 38.5636C34.5032 38.716 34.3838 38.8438 34.237 38.9329C34.0903 39.0221 33.9218 39.0693 33.7501 39.0692L16.8746 39.0699C16.7029 39.07 16.5345 39.0228 16.3877 38.9336C16.2409 38.8445 16.1215 38.7167 16.0424 38.5643C15.9633 38.4119 15.9276 38.2406 15.9391 38.0693C15.9507 37.898 16.0091 37.7331 16.108 37.5927C17.4246 35.7245 19.2778 34.3005 21.4221 33.5095C20.1642 32.674 19.2088 31.4557 18.6971 30.0349C18.1855 28.6141 18.1449 27.0664 18.5813 25.6207C19.0177 24.1751 19.9079 22.9083 21.1202 22.0079C22.3325 21.1076 23.8025 20.6214 25.3125 20.6214C26.8226 20.6214 28.2926 21.1076 29.5049 22.0079C30.7172 22.9083 31.6074 24.1751 32.0438 25.6207C32.4802 27.0664 32.4396 28.6141 31.9279 30.0349C31.4163 31.4557 30.4609 32.674 29.203 33.5095C31.347 34.3004 33.2 35.7241 34.5166 37.592H34.5167ZM44.0701 37.592C42.7535 35.7241 40.9004 34.3004 38.7563 33.5095C40.1506 32.5817 41.1678 31.1867 41.6251 29.5756C42.0823 27.9645 41.9494 26.2431 41.2504 24.7212C40.5514 23.1994 39.3322 21.977 37.8121 21.274C36.292 20.5711 34.571 20.4338 32.9587 20.8869C32.8124 20.9281 32.6782 21.0042 32.5678 21.1088C32.4575 21.2134 32.3742 21.3432 32.3252 21.4871C32.2762 21.6311 32.2629 21.7847 32.2865 21.9349C32.3101 22.0851 32.3699 22.2273 32.4607 22.3493C33.5204 23.7729 34.1297 25.4812 34.2099 27.2541C34.2901 29.0271 33.8376 30.7834 32.9107 32.2969C32.7883 32.4965 32.745 32.7346 32.7893 32.9645C32.8337 33.1944 32.9625 33.3994 33.1503 33.5392C33.5058 33.8037 33.8477 34.0859 34.1749 34.3847C34.1919 34.4031 34.2089 34.4214 34.2276 34.4386C35.4789 35.5954 36.493 36.9847 37.2133 38.529C37.2888 38.6906 37.4089 38.8274 37.5594 38.9232C37.7098 39.019 37.8846 39.0699 38.0629 39.0698L43.3036 39.0692C43.4753 39.0692 43.6437 39.022 43.7904 38.9329C43.9371 38.8437 44.0566 38.7159 44.1356 38.5635C44.2147 38.4111 44.2504 38.2399 44.2388 38.0685C44.2272 37.8972 44.1688 37.7324 44.07 37.592H44.0701Z" fill="black"/>
</svg>
