<svg width="60" height="60" viewBox="0 0 60 60" fill="none" xmlns="http://www.w3.org/2000/svg">
<circle cx="30" cy="30" r="30" fill="#00BF69"/>
<path d="M34.0181 34.2857C35.0531 34.2857 35.8931 35.1257 35.8931 36.1607V38.3057L35.8845 38.4214C35.5524 40.7003 33.5059 41.7953 30.072 41.7953C26.6509 41.7953 24.5713 40.7132 24.1224 38.4611L24.1074 38.3036V36.1607C24.1074 35.1257 24.9474 34.2857 25.9824 34.2857H34.0181ZM34.5474 27.8571H40.9824C42.0174 27.8571 42.8574 28.6971 42.8574 29.7321V31.8771L42.8488 31.9928C42.5166 34.2718 40.4702 35.3668 37.0363 35.3668L36.8563 35.3646C36.6911 34.7774 36.3479 34.2559 35.8739 33.8719C35.3999 33.4879 34.8186 33.2604 34.2099 33.2207L34.0181 33.2143H33.0302C33.5901 32.7628 34.0416 32.1916 34.3517 31.5427C34.6617 30.8937 34.8223 30.1835 34.8216 29.4643C34.8216 28.9007 34.7252 28.3607 34.5474 27.8571ZM19.0181 27.8571H25.4531C25.2752 28.3607 25.1788 28.9007 25.1788 29.4643C25.1788 30.8893 25.7981 32.1718 26.7816 33.0536L26.9702 33.2143H25.9824C24.6302 33.2143 23.4902 34.125 23.1431 35.3678L23.1077 35.3668C19.6866 35.3668 17.607 34.2846 17.1581 32.0325L17.1431 31.875V29.7321C17.1431 28.6971 17.9831 27.8571 19.0181 27.8571ZM30.0002 25.7143C30.9948 25.7143 31.9486 26.1094 32.6519 26.8126C33.3551 27.5159 33.7502 28.4697 33.7502 29.4643C33.7502 30.4588 33.3551 31.4127 32.6519 32.1159C31.9486 32.8192 30.9948 33.2143 30.0002 33.2143C29.0056 33.2143 28.0518 32.8192 27.3486 32.1159C26.6453 31.4127 26.2502 30.4588 26.2502 29.4643C26.2502 28.4697 26.6453 27.5159 27.3486 26.8126C28.0518 26.1094 29.0056 25.7143 30.0002 25.7143ZM36.9645 19.2857C37.9591 19.2857 38.9129 19.6808 39.6161 20.3841C40.3194 21.0873 40.7145 22.0411 40.7145 23.0357C40.7145 24.0303 40.3194 24.9841 39.6161 25.6874C38.9129 26.3906 37.9591 26.7857 36.9645 26.7857C35.9699 26.7857 35.0161 26.3906 34.3128 25.6874C33.6096 24.9841 33.2145 24.0303 33.2145 23.0357C33.2145 22.0411 33.6096 21.0873 34.3128 20.3841C35.0161 19.6808 35.9699 19.2857 36.9645 19.2857ZM23.0359 19.2857C24.0305 19.2857 24.9843 19.6808 25.6876 20.3841C26.3908 21.0873 26.7859 22.0411 26.7859 23.0357C26.7859 24.0303 26.3908 24.9841 25.6876 25.6874C24.9843 26.3906 24.0305 26.7857 23.0359 26.7857C22.0414 26.7857 21.0875 26.3906 20.3843 25.6874C19.681 24.9841 19.2859 24.0303 19.2859 23.0357C19.2859 22.0411 19.681 21.0873 20.3843 20.3841C21.0875 19.6808 22.0414 19.2857 23.0359 19.2857Z" fill="black"/>
</svg>
